<?xml version="1.0" encoding="UTF-8"?><svg xmlns="http://www.w3.org/2000/svg" viewBox="0 0 1920 1235.59"><defs><style>.e{fill:#feeeec;}.f{fill:#222c46;}</style></defs><g id="a"/><g id="b"><g id="c"><g><path class="e" d="M1019.24,1020.88c5.83-5.79,12.61-10.67,17.1-15.79,4.48-5.12,8.53-10.51,20.35-4.52,11.82,5.99,16.42,13.21,33.72,10.11,17.29-3.09,38.68-6.35,53.87-17.22,15.19-10.87,89.49-72.71,94.29-76.4,4.8-3.69,9.32-6.94,11.5-12.3,2.18-5.36,4.64-7.77,10.35-12.42,5.71-4.64,60.21-52.72,67.59-63.35,7.38-10.63,8.81-7.58,13.05-10.39,4.24-2.82,22.05-15.39,30.31-22.09,8.25-6.7,17.81-15.95,28.2-9.64,10.39,6.31,29.35,20.82,39.23,26.5,9.88,5.67,20.63,11.9,39.11,7.42,18.48-4.48,33.99-7.18,41.49-5.47,7.5,1.71,12.97,2.74,22.37-.48,0,0,36.19-10.7,48.26-9.33,12.07,1.37,22.94,2.81,21.99,5.86s.6,4.53,9.26,9.71c8.66,5.18,17.16,10.59,20.25,13.55,3.09,2.96,6.16,4.92,6.34,9.34,.17,4.42,1.2,3.59,6.42,.6,5.22-2.99,17.66-2.71,18.67,2.75,1.01,5.46-.82,9.11,6.51,6.47,7.32-2.64,17.78-5.78,23.37-4.38,5.58,1.4,8.68,2.53,24.89-2.08,16.22-4.62,45.26-10.87,56.64-8.94,11.38,1.93,34.58-1.4,42.83-4.45,8.25-3.05,14.13-9.43,19.35-16.07,5.22-6.64,13.1-12.24,12.33-19.37-.77-7.13-.39-9.04,.62-16.37,1.01-7.32,7.17-38.92,5.99-48.8-1.18-9.88-1.07-17.61-.92-21.5,.15-3.89,.19-7.35-3.5-7.54-3.69-.19-4.51-2.04-5.95,1.53s-2.88-.17-3.44-4.51c-.56-4.34-11.51-39.03,6.66-61.32,12.54-14.76,12.07-15.06,12.01-23.56-.06-8.51,1.76-19.46-9.67-28.89-11.43-9.43-16.52-13.17-21.8-20.51-5.28-7.35-27.13-28.05-58.51-27.77-31.38,.28-90.41-.6-98.7,.43-8.29,1.03-6.08,.95-7.05-2.49-.97-3.44,1.4-7.41-5.95-5.78-7.35,1.63-30.84,5.43-33.21,5.76-2.36,.32-6.04-.69-4.62,5.69,1.42,6.38,4.06,11.88-2.9,13.42-6.96,1.55-15.55-.6-14.24,6.21,1.31,6.81,2.17,27.11,2.17,30.76,0,3.65,2.38,7.99-6.62,8.57-9,.58-11.96,.02-14.95,.28-2.99,.26-4.45-.84-4.49,2.62-.04,3.46-5.58,2.26-20.36,3.31-14.78,1.05-27.56,1.05-35.68,2.86s-18.39,3.36-31.93-20.82c-5.1-8.51-5.47-5.71-9.47-.37-4,5.34-13.06,11.31-10,21.75,3.06,10.44,5.5,15.83,10.94,20.31,5.44,4.48,11.04,14.11,13.22,22.77,2.17,8.66,4.68,17.74,7.93,21.22,3.25,3.48,7.56,6.23-.26,12.17-7.82,5.94-33.89,37.69-65.24,34.52-12.72-1.62-4.66-.94-1.88-6.25,2.77-5.31,3.53-18.58,2.8-26.33-.73-7.75,1.2-25.73,.08-36.35-1.13-10.63-.92-71.97-4.66-92.15-3.74-20.18-8.71-38.1-15.44-56.14-6.73-18.03-9-24.94-13.32-38.81-4.32-13.87-27.01-79.27-32.06-103.11-5.05-23.84-18.14-71.6-24.76-89.16-6.62-17.56-8.66-22.3-20.75-38.89-12.09-16.59-16.93-21.7-22.64-27.35-5.71-5.65-5.84-.68-20.83-2.54-15-1.86-40.41-1.65-57.08-24.39-16.67-22.74-17.93-32.84-20.26-46.66-2.33-13.82-16.83-43.47-20.81-52.47-3.98-9-2.67-7.56-2.07-10.42,.6-2.85-2.17-8.66-8.27-17.19-6.1-8.53-15.26-27.51-36.06-37.71-20.81-10.21-27.43-14.42-36.14-14.71-8.71-.29-30.2-4.66-53.6,1.28-23.4,5.94-421.34,105.99-431.97,109.34-10.63,3.35-21.75,3.35-27.24,11.99-5.5,8.64-13.03,14.76-25.65,24.73-12.61,9.97-52.97,39.7-65.22,55.77-12.25,16.07-37.95,45.01-43.91,51.53-5.97,6.52-11.41,22.06-29.65,30.07-18.24,8.01-21.09,11.86-29.68,22.17-8.58,10.31-21.35,24.02-30.23,40.83-8.87,16.8-20.26,28.97-18.29,47.81,1.96,18.84,3.72,32.29,1.65,35.23-2.07,2.93-1.99,13.29-28.94,14.34-26.96,1.05-116.96,4.24-122.35,4.45-5.39,.21-9.6-2.07-10.68,7.56-1.07,9.63-4.97,53.26-6.15,57.97-1.18,4.71,3.3,12.61-10.34,10.21-13.63-2.41-61.16-9.39-64.2-9.71-3.04-.31-5.65-3.19-7.96,6.46-2.3,9.66-11.93,37.5-20.52,47.81-8.58,10.31-6.7,7.67-28.16,22.32-21.46,14.66-29.44,17.67-35.93,37.4-6.49,19.73-12.59,35.67-12.09,47.92,.5,12.25-.03,32.14-2.33,44.02-2.3,11.88-5.5,55.35-1.73,70.08,3.77,14.73,1.2,16.54,17.64,17.09,19.76,1.05,92.36,9.63,96.91,10.1s18.95,2.96,27.98,13.56c9.03,10.6,12.98,9.47,34.78,13.03,21.8,3.56,31.17,5.68,36.19,6.05,5.02,.37,6.86-.29,12.14-.97,5.29-.68,7.41-1.15,6.52,5.97-.89,7.12-2.83,22.87,0,33.37,2.83,10.49,8.9,35.59,15.23,41.85,6.33,6.25,22.69,25.36,26.22,29.02,3.53,3.66,4.48,5.68,11.38,5.63,6.91-.05,40.64-2.85,46.9-2.51,6.25,.34,15.31-3.4,19.37-6.28,4.06-2.88,19.37-12.95,25.73-7.69,6.36,5.26,10.15,7.88,11.41,9.08s5.52,1.49,1.65,6.31c-3.87,4.82-8.9,11.12-10.31,13.66-1.41,2.54-3.51,2.02-1.31,9.68,2.2,7.67,6.94,25.65,7.51,28.24,.58,2.59,1.39,5.13,4.68,4.4,3.3-.73,30.15-6.7,33.39-7.67,3.25-.97,5.02-1.86,7.62-6.88,2.59-5.02,25.07-42.89,26.88-47,1.81-4.11,3.22-6.65,6.23-5.34,3.01,1.31,69.46,23.37,77.91,26.93,8.45,3.56,24.34,9.42,44.07,11.46,19.73,2.04,291.33,29.68,296.28,30.8,4.95,1.13,7.8-.5,6.62,4.21-1.33,8.45-2.77,11.99,3.51,11.33,6.28-.65,63.12-11.8,76.1-9,12.98,2.8,23.1,.5,28.94-2.13,5.84-2.63,11.39-8.8,11.39-8.8Z"/><g id="d"><g><path class="f" d="M477.24,1232.23c6.61-75.5,11.29-152.15,17.91-227.65,1.75-19.31,6.59-39.39,6.6-59.08,0-6.57-1.54-12.75-3.08-18.93-15.64,6.36-33.6,13.3-50.6,17.54-3.09,.77-12.75,1.53-13.71-2.33-.77-3.09,3.87-4.25,5.41-4.63,17.96-6.94,42.49-10.59,57.94-21.01-.58-2.32-1.15-4.64-1.54-6.18l-2.5-13.33c-5.59-22.4-15.6-59.29-32.01-75.71l-.19-.77c-16.59-20.48-31.07-29.18-56.36-35.18l-.77,.19c-18.73-6-40.75,4.42-58.51,8.85-2.31,.58-8.5,2.12-9.46-1.74s10.82-9.26,13.72-10.8c40.37-22.37,158.19-79.64,199.91-86.76,4.06-13.32,2.33-20.28,17.78-24.13,2.32-.58,6.37-.77,8.5,1.16-1.16,5.21-2.52,9.65-4.45,15.06l.38,1.55c34.19-10.98,68.56-21.2,103.33-29.86,42.48-10.59,84-18.48,127.65-21.16,1.55-.38,3.86-.96,4.63,2.13l-.58,.97c-2.32,3.86-5.99,5.6-9.85,6.56-5.41,1.35-10.24,1.73-15.26,1.34-27.03,.18-57.93,7.88-84.2,14.43-43.26,10.79-86.52,21.57-129.01,35.45-20.13,67.38-33.88,137.27-41.84,207.36,21.63-11.96,54.27-19.27,78.99-25.44,6.95-1.73,50.21-12.52,52.14-4.8,1.35,5.41-28.2,8.68-32.06,9.64-33.99,8.47-67.4,19.26-100.43,31.6-5.04,25.87-.42,50.98,.33,77.04,2.46,75.69-11.29,148.87-25.63,223-.78,3.48-.78,6.76-2.32,10.43-1.94,5.41-5.8,6.37-11.21,7.72-2.32,.58-10.04,2.5-9.65-2.52Zm69.65-526.91l-2.9,1.54c-55.24,21.98-110.67,39.9-163.59,67.87,72.8-10.77,111.78,33.67,130.47,98.75,7.95-56.96,20.35-112.56,36.02-168.16Z"/><path class="f" d="M640.93,1013.36c-9.63-38.62,32.69-86.09,68.22-94.96,9.27-2.31,26.45,4.07,28.95,14.11,5.78,23.18-59.12,59.05-77.66,63.67,0,3.28,.77,6.37,1.54,9.46,3.27,13.13,13.31,27.04,27.59,28.4l-.77,.19c4.83-.38,9.65-.76,14.29-1.92,40.94-10.21,100.47-97.25,121.14-103.23,2.51,.2,4.63,2.13,5.21,4.45,1.35,5.41-28.6,33.39-33.82,38.79-25.12,27.59-58.54,61.36-96.4,70.8-26.27,6.55-51.17-1.19-58.29-29.78Zm25.12-27.59c10.24-5.02,54.48-31.63,51.2-44.77-1.73-6.95-9.65-12.37-16.79-11.4-18.93,12.92-33.43,33.77-38.46,56.36l4.05-.19Z"/><path class="f" d="M834.55,1085.7c-12.52-50.21,31.73-96.52,20.17-142.87-12.35-13.33-39.78-1.57-46.13-27.06-5.01-20.09,7.94-30.7,25.7-35.13,10.82-2.7,21.43-2.88,24.71,10.25,3.08,12.36-4.84,23.36-11.42,33.21,9.65,2.52,26.64,4.84,29.53,16.43,9.05,36.31-33.08,91.12-21.33,138.24,1.93,7.73,10.79,26.85,20.84,24.34,3.09-.77,8.31-6.18,11.01-8.49,56.04-61.56,84.47-138.39,124.87-210,2.32-3.86,4.44-8.5,9.08-9.65,3.86-.96,9.27,4.25,10.04,7.34,1.54,6.18-58,109.64-65.73,124.7-14.69,26.64-29,51.54-48.51,75.28-10.63,13.31-23.96,25.66-40.95,29.9-20.86,5.2-36.68-5.62-41.88-26.48Zm3.79-188.84c-.58-2.31-1.35-5.41-4.05-6.37l-.77,.19c-4.25,5.98-5.41,11.2-3.68,18.15,.77,3.09,1.35,5.41,3.66,8.11,3.48-5.79,6.57-13.13,4.84-20.08Z"/><path class="f" d="M1025.5,814.92q.77-.19,1.55-.38l2.9-1.54c4.64-1.16,8.69-1.35,13.52-1.73l4.05,3.09c-4.65,24.13-6.98,47.69-9.12,72.01,10.06-22.2,35.38-72,60.1-78.16,9.27-2.31,21.44-2.88,24.33,8.71,5.01,20.09-3.7,50.97,3.04,78.01,2.12,8.5,3.85,12.17,12.34,16.61l1.55-.39c-.58,.97,.96,.58,.96,.58,26.27-6.55,65.12-77.77,75.94-80.47,3.09-.77,8.11-.38,9.07,3.48,4.82,19.31-53.35,78.94-78.84,85.3-17.77,4.43-38.23-1.95-43.04-21.27-6.16-24.72-3.44-53.3-3.23-78.78-20.29,20.65-56.83,91.3-67.66,120.25-1.93,5.41-3.68,11.59-6.58,16.41-1.16,1.93-2.51,3.09-4.83,3.67-4.64,1.16-13.91,3.47-16.8-1.56,6.78-35.33,12.05-119.52,20.75-143.84Z"/><path class="f" d="M1276.31,843.46c-7.74,18.34-18.17,38.99-39.03,44.19-13.91,3.47-30.12,.95-34.17-15.28-8.09-32.44,16.85-73.94,49.29-82.03,7.73-1.93,15.06-2.11,22.79-.76l1.55-3.66,2.7-2.32c6.18-1.54,15.84-2.3,19.69,3.3-4.65,24.13-5.82,39.2,.15,63.14,2.5,10.05,5.97,20.66,12.14,28.97l.19,.77c40.37-19.09,68.03-92.45,77.3-94.76,4.64-1.16,8.11,6.19,9.07,10.05,6.16,24.72-51.23,87.44-76.72,93.79-30.9,7.7-39.95-22.04-44.96-45.41Zm-5.77-42.87l-3.09-2.52-.77,.19c-27.81,6.93-48.69,48.24-41.76,76.05l2.51,3.47c22.02-10.41,34.6-55.39,43.11-77.21Z"/><path class="f" d="M1391.65,723.63l1.55-.39,2.9-1.54c4.64-1.16,8.69-1.35,13.52-1.73l4.05,3.09c-4.65,24.13-6.98,47.69-9.12,72.01,10.06-22.2,35.38-72,60.1-78.16,9.27-2.31,21.43-2.88,24.32,8.71,5.01,20.09-3.7,50.98,3.04,78.01,2.12,8.5,3.85,12.17,12.35,16.61l1.55-.39c-.58,.97,.96,.58,.96,.58,26.27-6.55,65.12-77.77,75.94-80.47,3.09-.77,8.11-.38,9.07,3.48,4.82,19.31-53.34,78.94-78.84,85.3-17.77,4.43-38.23-1.95-43.05-21.27-6.16-24.72-3.44-53.29-3.23-78.78-20.29,20.65-56.83,91.3-67.66,120.25-1.94,5.41-3.68,11.58-6.58,16.41-1.16,1.93-2.51,3.09-4.83,3.67-4.64,1.15-13.91,3.47-16.8-1.56,6.78-35.33,12.05-119.52,20.75-143.84Z"/><path class="f" d="M1670.67,713.96c0,3.28-15.86,44.98-18.19,52.12-6,18.73-14.7,36.49-35.55,41.69-22.4,5.59-35.91-12.38-40.72-31.69-10.21-40.94,31.55-120.28,73.27-130.68,6.95-1.73,13.71-.96,20.08,1.56,5.23-25.1,47.06-219.32,52.47-223.95,2.71-2.31,6.38-4.05,10.24-5.01,1.55-.39,11.2-1.15,9.84,3.29-24.38,86.49-69.72,332.46-50.08,411.25,.39,1.55,3.08,12.36,5.01,10.24l3.28,3.28c.96,3.86-5.22,5.4-7.53,5.98-12.36,3.08-18.15,2.88-21.62-11.02-7.51-30.13-2.26-94.61-.5-127.05Zm-53.15,82.99l6.18-8.1-.19-.78c18.17-35.71,28.82-75.29,39.66-114.09-3.66-8.11-5.21-14.3-15.24-18.36l-2.32,.58c.19,.77-.58,.97-1.35,1.16l-5.41,4.63c-.96-.58-1.55,.39-.58,.97-8.5,8.68-13.33,18.91-21.06,27.41l.19,.77c-13.33,15.63-24.94,57.91-19.75,78.77,2.7,10.82,7.71,21.05,17.36,26.85l2.51,.19Z"/><path class="f" d="M1718.52,774.23c-4.43-17.77,15.11-77.61,32.11-81.85,5.03-12.74,12.76-24.51,26.66-27.98,19.31-4.82,29.15,5.04,33.58,22.81,2.12,8.5,1.73,16.8-.21,25.49,4.06-.19,7.15-.96,11.01-1.92,7.73-1.93,38.24-11.18,41.91-16.2,17.57-8.48,33.42-20.64,45.21-35.88l-.58,.97,4.64-4.44c3.09-.77,6.18,1.74,6.95,4.83s-.78,6.75-2.52,9.65c-21.45,29.14-74.56,46.49-109.13,52.64-6.97,27.99-22.24,58.88-53.14,66.58-13.13,3.28-32.44,1.53-36.49-14.7Zm32.82,6.59c19.32-14.66,29.56-32.81,35.18-56.36-11.59-.39-22.98-.02-31.85-9.29-8.89,13.7-18.17,35.71-13.94,52.7,1.35,5.41,4.63,11.98,9.84,13.14l.77-.19Zm37.52-89.76c-1.35-5.41-3.66-11.39-7.91-15.26-4.64,7.72-11.79,15.25-9.29,25.29,1.93,7.73,8.87,12.56,16.41,13.14,3.09-7.33,2.71-15.45,.79-23.17Z"/></g><g><path class="f" d="M3.29,641.21c-3.47-13.91-3.07-28.77-3.25-42.68-1.08-126.09,23.92-269.35,61.07-390.2l2.32-.58,3.67-1.74c3.86-.96,8.69-1.35,12.16-.57l1.16,1.35c.38,11.39-20.53,88.81-24.98,107.15-17.23,75.68-48.82,248.48-30.52,321.86,2.5,10.04,6.56,13.14,13.31,20.48l9.65,2.52c3.28,0,5.6-.57,8.69-1.34q.77-.19,1.55-.39l2.12-1.35,1.55-.39,.58-.97c7.53-2.7,19.32-14.66,25.31-20.26,78.83-72.17,122.68-100.33,227.74-126.52,3.86-.96,26.85-7.51,28.38-1.34,1.73,6.96-33.22,11.57-38.63,12.91-61.03,15.22-102.75,35.46-152.01,74.82l.19,.78c-20.47,6.74-56.04,61.56-95.43,71.38-22.4,5.59-48.27,.55-54.63-24.94Z"/><path class="f" d="M328.33,529.81c-7.9-31.67,6.04-81.09,17.45-111.01l3.48-2.51,10.43-.96c3.09-.77,5.98,.97,8.11,2.9-6.98,37.84-27.66,70.08-17.45,111.02,1.54,6.18,4.63,11.97,9.83,16.42l.97,.58c23.76-13.31,41.14-29.13,59.12-49.2,10.82-12.54,45.42-64.65,46.96-65.04,4.64-1.15,9.27,4.25,10.23,8.12,6.16,24.72-79.81,107.7-106.85,114.44-20.86,5.2-36.88-3.11-42.27-24.74Zm30.62-173.38c-1.54-6.18,3.87-20.66,10.83-22.39,3.86-.96,12.16-.57,15.25,1.94-2.32,10.42-.98,19.11-13.34,22.2-3.86,.96-10.43,.96-12.74-1.75Z"/><path class="f" d="M465.59,573.54c-32.16-129.01,14.13-357.99,116.14-452.34,5.99-5.6,11.59-9.46,19.32-11.38,8.5-2.12,16.03-1.53,18.53,8.51,.96,3.86,1.15,7.92,1.15,11.2-3.35,105.04-80.46,207.14-140.56,288.58-4.67,50.39-5.09,101.37,7.24,150.81,4.43,17.77,9.06,29.74,22.76,41.92l4.44,1.35,5.41-1.35-.19-.77,1.55-.39c56.03-48.43,86.59-133.18,116.75-199.78,2.13-4.63,7.74-18.34,13.14-19.69,3.86-.96,7.53,3.87,8.3,6.96,2.89,11.59-41.97,98.26-49.7,113.32-15.08,28.37-30.74,57.71-51.61,82.61-11.4,13.51-24.54,23.35-41.53,27.59-33.99,8.47-44.4-20.11-51.14-47.14ZM597.76,122.94c-65.11,58.08-101.1,180.29-113.7,264.66,41.55-57.13,131.04-191.86,113.7-264.66Z"/><path class="f" d="M641.96,451.61c-7.9-31.67,6.04-81.09,17.45-111.01l3.48-2.51,10.43-.96c3.09-.77,5.98,.97,8.11,2.9-6.97,37.84-27.66,70.08-17.45,111.02,1.54,6.18,4.63,11.97,9.84,16.42l.97,.58c23.76-13.31,41.15-29.13,59.12-49.2,10.82-12.54,45.42-64.65,46.96-65.04,4.64-1.16,9.27,4.25,10.23,8.12,6.16,24.72-79.81,107.69-106.85,114.44-20.86,5.2-36.88-3.11-42.27-24.74Zm30.62-173.38c-1.54-6.18,3.88-20.66,10.83-22.39,3.86-.96,12.16-.57,15.25,1.94-2.33,10.43-.98,19.12-13.34,22.2-3.86,.96-10.43,.96-12.74-1.75Z"/><path class="f" d="M839.54,371.99c-7.74,18.34-18.17,38.99-39.03,44.19-13.91,3.47-30.12,.95-34.17-15.28-8.09-32.44,16.85-73.94,49.29-82.03,7.73-1.93,15.06-2.11,22.79-.76l1.55-3.67,2.7-2.31c6.18-1.54,15.84-2.31,19.69,3.29-4.65,24.14-5.82,39.2,.15,63.14,2.5,10.05,5.97,20.67,12.14,28.97l.19,.77c40.37-19.09,68.03-92.45,77.3-94.76,4.63-1.16,8.11,6.19,9.07,10.05,6.16,24.72-51.23,87.44-76.72,93.79-30.9,7.7-39.95-22.04-44.96-45.4Zm-5.77-42.87l-3.09-2.51-.78,.19c-27.81,6.93-48.69,48.24-41.75,76.05l2.51,3.48c22.02-10.41,34.6-55.39,43.11-77.21Z"/><path class="f" d="M954.88,252.16q.77-.19,1.55-.39l2.9-1.54c4.63-1.16,8.69-1.35,13.52-1.73l4.05,3.09c-4.65,24.13-6.98,47.69-9.12,72.01,10.05-22.2,35.38-72,60.1-78.16,9.27-2.31,21.43-2.88,24.32,8.71,5.01,20.09-3.7,50.97,3.04,78.01,2.12,8.5,3.85,12.17,12.35,16.61l1.55-.39c-.58,.97,.97,.58,.97,.58,26.27-6.55,65.12-77.77,75.94-80.47,3.09-.77,8.11-.38,9.07,3.48,4.82,19.32-53.35,78.94-78.84,85.3-17.77,4.43-38.23-1.95-43.05-21.27-6.16-24.72-3.44-53.3-3.23-78.78-20.29,20.65-56.83,91.29-67.66,120.25-1.93,5.41-3.67,11.59-6.57,16.41-1.16,1.93-2.51,3.09-4.83,3.67-4.64,1.16-13.91,3.47-16.8-1.56,6.78-35.33,12.05-119.52,20.76-143.84Z"/></g><path class="f" d="M1035.14,490.33c.19,4.05-6.57,6.56-9.66,7.33-8.5,2.12-14.09-3.87-22.01-6l-.78,.19-4.25-.58-5.41,1.35-5.02,2.89c-.78,3.47-29.17,17.94-23.01,42.66,8.67,34.76,48.07,15.09,52.51,23.01-.39,5.02-8.12,6.94-11.98,7.91-6.18,1.54-11.78,2.12-17.38,2.69-3.67,1.74-6.96,5.02-10.43,7.52l-.58,.97c-11.21,14.28-23,39.38-18.38,57.92,3.85,15.45,15.24,18.35,29.14,14.89,5.41-1.35,11.39-3.66,16.42-6.55l-.77,.19,1.35-1.16-.58,.97c8.31-6.17,30.14-27.21,36.32-28.75,2.32-.58,8.69-1.34,10.23,1.55-2.71,12.16-35.55,31.84-47.33,37.24-2.13,11.2-12.6,74.53-14.92,78.38-1.93,2.12-6.38,4.05-8.69,4.63-2.32,.58-10.43,.96-11.97-1.94,4.46-24.91,8.91-49.81,14.14-74.91-15.64,3.08-37.65,3.65-42.47-15.67-6.74-27.04,10.08-61.59,32.49-77.02l.77-.19c-12.16-2.71-24.32-11.99-27.4-24.35-6.55-26.26,22.43-51.54,44.06-60.22,4.07-19.89,7.36-39.58,7.95-60.24l1.16-1.93c1.35-1.16,3.67-1.74,5.21-2.12,4.64-1.15,8.69-1.34,13.13,.01l.38,1.55,1.16,1.35c-.98,19.11-3.5,38.62-6.99,57.53,4.83-.38,22.2,3.49,23.55,8.9Z"/></g></g></g></g></svg>