<?xml version="1.0" encoding="UTF-8"?><svg xmlns="http://www.w3.org/2000/svg" viewBox="0 0 1982.32 988.97"><defs><style>.d{fill:#f8d1cf;}</style></defs><g id="a"/><g id="b"><g id="c"><path class="d" d="M993.28,0l-2.17,2.17-2.14-2.17L0,988.97H1982.32L993.28,0Zm837.82,846.47l-66.05,66.02-66.02-66.02,66.02-66.05,66.05,66.05Zm-70.36-70.36l-66.02,66.02-66.05-66.02,66.05-66.02,66.02,66.02Zm-1398.49,0l66.02-66.02,66.02,66.02-66.02,66.02-66.02-66.02Zm61.71,70.36l-66.05,66.02-66.02-66.02,66.02-66.05,66.05,66.05Zm989.31-145.04l-66.02-66.05,66.02-66.02,66.05,66.02-66.05,66.05Zm70.36-61.71l66.05,66.02-66.05,66.05-66.02-66.05,66.02-66.02Zm-839.96-4.34l66.02-66.02,66.05,66.02-66.05,66.05-66.02-66.05Zm61.71,70.36l-66.05,66.05-66.02-66.05,66.02-66.02,66.05,66.02Zm426.46-145.04l-66.02-66.02,66.02-66.05,66.05,66.05-66.05,66.02Zm70.36-61.71l66.02,66.05-66.02,66.02-66.02-66.02,66.02-66.05Zm-277.11-4.31l66.02-66.05,66.05,66.05-66.05,66.02-66.02-66.02Zm61.71,70.36l-66.02,66.02-66.05-66.02,66.05-66.05,66.02,66.05Zm74.68-66.05l66.05,66.05-66.05,66.02-66.02-66.02,66.02-66.05Zm0-8.65l-66.02-66.02,66.02-66.02,66.05,66.02-66.05,66.02Zm-70.36-70.33l-66.02-66.05,66.02-66.02,66.05,66.02-66.05,66.05Zm-4.31,4.31l-66.02,66.02-66.05-66.02,66.05-66.02,66.02,66.02Zm-70.36,70.36l-66.02,66.02-66.05-66.02,66.05-66.05,66.02,66.05Zm-70.36,70.36l-66.02,66.02-66.02-66.02,66.02-66.05,66.02,66.05Zm-66.02,74.67l66.02,66.02-66.02,66.05-66.02-66.05,66.02-66.02Zm4.31-4.34l66.05-66.02,66.02,66.02-66.02,66.05-66.05-66.05Zm136.42,4.34l66.02,66.02-66.02,66.05-66.05-66.05,66.05-66.02Zm4.31-4.34l66.02-66.02,66.05,66.02-66.05,66.05-66.02-66.05Zm136.38,4.34l66.05,66.02-66.05,66.05-66.02-66.05,66.02-66.02Zm4.34-4.34l66.02-66.02,66.05,66.02-66.05,66.05-66.02-66.05Zm136.38,4.34l66.02,66.02-66.02,66.05-66.05-66.05,66.05-66.02Zm4.31-4.34l66.05-66.02,66.02,66.02-66.02,66.05-66.05-66.05Zm136.42,4.34l66.02,66.02-66.02,66.05-66.05-66.05,66.05-66.02Zm0-8.65l-66.05-66.02,66.05-66.05,66.02,66.05-66.02,66.02Zm-70.36-70.36l-66.05-66.02,66.05-66.05,66.02,66.05-66.02,66.02Zm-70.36-70.36l-66.02-66.02,66.02-66.02,66.02,66.02-66.02,66.02Zm-70.36-70.33l-66.02-66.05,66.02-66.02,66.05,66.02-66.05,66.05Zm-70.36-70.36l-66.02-66.05,66.02-66.02,66.05,66.02-66.05,66.05Zm-70.36-70.36l-66.02-66.02,66.02-66.05,66.05,66.05-66.05,66.02Zm-4.31,4.31l-66.02,66.05-66.05-66.05,66.05-66.02,66.02,66.02Zm-70.36,70.36l-66.02,66.05-66.05-66.05,66.05-66.02,66.02,66.02Zm-70.36,70.36l-66.02,66.02-66.02-66.02,66.02-66.02,66.02,66.02Zm-70.33,70.36l-66.05,66.02-66.02-66.02,66.02-66.05,66.05,66.05Zm-70.36,70.36l-66.05,66.02-66.02-66.02,66.02-66.05,66.05,66.05Zm-70.36,70.33l-66.02,66.05-66.05-66.05,66.05-66.02,66.02,66.02Zm-70.36,70.36l-66.02,66.05-66.05-66.05,66.05-66.02,66.02,66.02Zm-66.02,74.67l66.02,66.05-66.02,66.02-66.05-66.02,66.05-66.05Zm4.31-4.31l66.05-66.02,66.02,66.02-66.02,66.02-66.05-66.02Zm136.38,4.31l66.05,66.05-66.05,66.02-66.02-66.02,66.02-66.05Zm4.34-4.31l66.02-66.02,66.05,66.02-66.05,66.02-66.02-66.02Zm136.38,4.31l66.02,66.05-66.02,66.02-66.02-66.02,66.02-66.05Zm4.31-4.31l66.05-66.02,66.02,66.02-66.02,66.02-66.05-66.02Zm136.42,4.31l66.02,66.05-66.02,66.02-66.05-66.02,66.05-66.05Zm4.31-4.31l66.02-66.02,66.05,66.02-66.05,66.02-66.02-66.02Zm136.38,4.31l66.05,66.05-66.05,66.02-66.02-66.02,66.02-66.05Zm4.34-4.31l66.02-66.02,66.05,66.02-66.05,66.02-66.02-66.02Zm136.38,4.31l66.02,66.05-66.02,66.02-66.02-66.02,66.02-66.05Zm4.31-4.31l66.05-66.02,66.02,66.02-66.02,66.02-66.05-66.02Zm136.42,4.31l66.02,66.05-66.02,66.02-66.05-66.02,66.05-66.05Zm4.31-4.31l66.02-66.02,66.05,66.02-66.05,66.02-66.02-66.02Zm136.38,4.31l66.05,66.05-66.05,66.02-66.02-66.02,66.02-66.05Zm4.34-4.31l66.02-66.02,66.02,66.02-66.02,66.02-66.02-66.02Zm136.38,4.31l66.02,66.05-66.02,66.02-66.05-66.02,66.05-66.05Zm66.02-74.67l-66.02,66.05-66.05-66.05,66.05-66.02,66.02,66.02Zm-70.36-70.36l-66.02,66.05-66.02-66.05,66.02-66.02,66.02,66.02Zm-70.33-70.33l-66.05,66.02-66.02-66.02,66.02-66.05,66.05,66.05Zm-70.36-70.36l-66.05,66.02-66.02-66.02,66.02-66.05,66.05,66.05Zm-70.36-70.36l-66.02,66.02-66.05-66.02,66.05-66.02,66.02,66.02Zm-70.36-70.36l-66.02,66.05-66.05-66.05,66.05-66.02,66.02,66.02Zm-70.36-70.36l-66.02,66.05-66.02-66.05,66.02-66.02,66.02,66.02Zm-70.33-70.33l-66.05,66.02-66.02-66.02,66.02-66.05,66.05,66.05Zm-70.36-70.36l-66.05,66.02-66.02-66.02,66.02-66.05,66.05,66.05ZM991.11,6.48l66.05,66.05-66.05,66.02-66.02-66.02L991.11,6.48Zm-70.33,70.36l66.02,66.05-66.02,66.02-66.05-66.02,66.05-66.05Zm-70.36,70.36l66.02,66.05-66.02,66.02-66.05-66.02,66.05-66.05Zm-70.36,70.36l66.02,66.02-66.02,66.05-66.02-66.05,66.02-66.02Zm-70.36,70.36l66.05,66.02-66.05,66.05-66.02-66.05,66.02-66.02Zm-70.36,70.36l66.05,66.02-66.05,66.02-66.02-66.02,66.02-66.02Zm-70.33,70.33l66.02,66.05-66.02,66.02-66.05-66.02,66.05-66.05Zm-70.36,70.36l66.02,66.05-66.02,66.02-66.05-66.02,66.05-66.05Zm-70.36,70.36l66.02,66.02-66.02,66.05-66.02-66.05,66.02-66.02Zm-70.36,70.36l66.05,66.02-66.05,66.05-66.02-66.05,66.02-66.02Zm-70.36,70.36l66.05,66.02-66.05,66.02-66.02-66.02,66.02-66.02Zm-70.36,70.33l66.05,66.05-66.02,66.02-66.05-66.02,66.02-66.05ZM14.77,982.86l61.71-61.71,61.71,61.71H14.77Zm66.02-66.05l66.05-66.02,66.02,66.02-66.02,66.05-66.05-66.05Zm74.71,66.05l61.71-61.71,61.68,61.71h-123.39Zm66.02-66.05l66.02-66.02,66.05,66.02-66.05,66.05-66.02-66.05Zm74.68,66.05l61.71-61.71,61.71,61.71h-123.42Zm66.05-66.05l66.02-66.02,66.02,66.02-66.02,66.05-66.02-66.05Zm74.68,66.05l61.71-61.71,61.71,61.71h-123.42Zm66.02-66.05l66.05-66.02,66.02,66.02-66.02,66.05-66.05-66.05Zm74.68,66.05l61.71-61.71,61.71,61.71h-123.42Zm66.05-66.05l66.02-66.02,66.05,66.02-66.05,66.05-66.02-66.05Zm74.68,66.05l61.71-61.71,61.71,61.71h-123.42Zm66.02-66.05l66.05-66.02,66.02,66.02-66.02,66.05-66.05-66.05Zm74.71,66.05l61.71-61.71,61.71,61.71h-123.42Zm132.04,0l-66.02-66.05,66.02-66.02,66.05,66.02-66.02,66.05h-.03Zm8.65,0l61.71-61.71,61.71,61.71h-123.42Zm66.05-66.05l66.02-66.02,66.05,66.02-66.05,66.05-66.02-66.05Zm74.68,66.05l61.71-61.71,61.71,61.71h-123.42Zm66.02-66.05l66.05-66.02,66.02,66.02-66.02,66.05-66.05-66.05Zm74.71,66.05l61.71-61.71,61.71,61.71h-123.42Zm66.02-66.05l66.02-66.02,66.05,66.02-66.05,66.05-66.02-66.05Zm74.68,66.05l61.71-61.71,61.71,61.71h-123.42Zm66.05-66.05l66.02-66.02,66.02,66.02-66.02,66.05-66.02-66.05Zm74.68,66.05l61.71-61.71,61.71,61.71h-123.42Zm66.02-66.05l66.05-66.02,66.02,66.02-66.02,66.05-66.05-66.05Zm74.68,66.05l61.71-61.71,61.71,61.71h-123.42Zm66.05-66.05l66.02-66.02,66.05,66.02-66.05,66.05-66.02-66.05Zm74.68,66.05l61.71-61.71,61.71,61.71h-123.42Z"/></g></g></svg>