<?xml version="1.0" encoding="UTF-8"?><svg xmlns="http://www.w3.org/2000/svg" viewBox="0 0 1920 1920"><defs><style>.d{fill:#231f20;}</style></defs><g id="a"/><g id="b"><g id="c"><path class="d" d="M960,1568.74c-335.66,0-608.74-273.08-608.74-608.73S624.34,351.26,960,351.26s608.73,273.08,608.73,608.74-273.08,608.73-608.73,608.73Zm0-1202.34c-327.31,0-593.6,266.29-593.6,593.6s266.29,593.6,593.6,593.6,593.6-266.29,593.6-593.6S1287.31,366.4,960,366.4Zm0,1553.6C430.65,1920,0,1489.35,0,960S430.65,0,960,0s960,430.65,960,960-430.65,960-960,960Zm0-1904.86C439,15.14,15.14,439,15.14,960s423.86,944.86,944.87,944.86,944.86-423.86,944.86-944.86S1481,15.14,960,15.14Zm44.98,1006.54v-278.61s90.5-52.14,91.67-52.95c26.03-15.76,43.4-44.39,43.4-76.99v-44.16c0-3.47-3.75-5.63-6.75-3.9l-173.34,100.02-173.34-100.02c-3-1.73-6.75,.43-6.75,3.9v44.16c0,32.6,17.38,61.23,43.4,76.99,1.17,.81,91.67,52.95,91.67,52.95v278.61l-353.44-206.99c-3-1.73-6.75,.43-6.75,3.9v44.52c0,30.89,15.58,58.08,39.26,74.29,.18,.18,.27,.27,.45,.36l320.48,187.93v226.92c0,26.32,22.62,47.39,49.47,44.81,23.4-2.25,40.58-23.26,40.58-46.77v-224.96l320.56-186.65c.09-.09,.27-.18,.36-.27,23.77-16.21,39.35-43.49,39.35-74.38v-44.52c0-3.47-3.75-5.63-6.75-3.9l-353.52,205.71Zm-777.74-20.43l-48.36,48.36-48.29-48.36,48.29-48.28,48.36,48.28Zm-48.36-185.42l-48.29,48.28,48.29,48.36,48.36-48.36-48.36-48.28Zm68.57,68.57l-48.28,48.28,48.28,48.36,48.28-48.36-48.28-48.28Zm-137.13,0l-48.28,48.28,48.28,48.36,48.28-48.36-48.28-48.28Zm368.99,761.29l-9.21,12.02-69.46-53.31,7.2-9.39,68.51-7.77c8.31-.92,14.59-2.43,18.83-4.52,4.23-2.08,7.66-4.83,10.27-8.24,3.89-5.06,5.13-10.35,3.74-15.88-1.39-5.53-5.4-10.84-12.02-15.93-10.69-8.2-21.61-11.02-32.77-8.48l-3.15-15.35c7.32-1.71,15.02-1.5,23.12,.62s15.92,6.08,23.47,11.87c10.13,7.77,16.32,16.37,18.59,25.8,2.28,9.42,.24,18.28-6.12,26.56-3.96,5.16-8.81,9.19-14.56,12.09-5.74,2.91-13.95,4.94-24.64,6.1l-51.38,5.76,49.56,38.05Zm115.13,51.03l-20.07-11.54-14.91,25.96-14.65-8.41,14.91-25.96-58.71-33.73,6.08-10.56,93.74-38.08,16.3,9.36-90.09,36.97,40.59,23.32,13.18-22.94,14.19,8.15-13.18,22.94,20.07,11.53-7.45,12.99Zm175.65,85.4c-6.42-6.27-10.82-14.43-13.23-24.49-2.42-10.04-2.39-21.39,.06-34.03,2.47-12.64,6.71-23.16,12.71-31.57,6.02-8.4,13.17-14.31,21.46-17.72,8.29-3.41,17.16-4.2,26.61-2.36,9.34,1.83,17.22,5.87,23.62,12.14,6.4,6.27,10.82,14.43,13.23,24.48,2.41,10.04,2.39,21.4-.07,34.03-2.45,12.65-6.7,23.17-12.71,31.57-6.02,8.4-13.16,14.32-21.45,17.72-8.29,3.41-17.1,4.21-26.44,2.38-9.46-1.84-17.38-5.9-23.78-12.17Zm52.02-10.35c7.29-6.74,12.39-17.57,15.28-32.49,2.91-14.92,2.26-26.87-1.97-35.85-4.21-8.98-11.12-14.4-20.68-16.27-9.68-1.88-18.17,.54-25.45,7.28-7.27,6.73-12.37,17.57-15.28,32.49-2.91,14.92-2.25,26.87,1.97,35.85,4.23,8.98,11.17,14.41,20.86,16.3,9.58,1.86,17.99-.58,25.28-7.31Zm142.02-83.43l-.64,11.82-55.15,107.18-18.43-1,53.94-103.93-55.62-3.02-1.18,21.72-16.69-.9,2.01-36.85,91.76,4.98Zm251,67.51l3.78,14.66-84.77,21.88-2.97-11.46,36.08-58.74c4.39-7.12,7.07-13,8.03-17.63,.98-4.62,.92-9.01-.16-13.17-1.6-6.18-5-10.42-10.2-12.73-5.22-2.31-11.87-2.42-19.95-.33-13.04,3.36-21.99,10.23-26.86,20.59l-14.03-6.98c3.15-6.81,8.06-12.74,14.72-17.82,6.65-5.08,14.59-8.8,23.81-11.18,12.36-3.19,22.94-2.78,31.78,1.23,8.82,4.01,14.53,11.08,17.15,21.19,1.63,6.3,1.82,12.6,.56,18.91-1.24,6.31-4.7,14.04-10.38,23.17l-27.09,44.03,60.5-15.62Zm47.18-7.45c-8.79-1.71-16.97-6.09-24.52-13.15-7.55-7.06-13.78-16.54-18.68-28.45-4.89-11.91-7.15-23.03-6.77-33.35,.4-10.32,3.12-19.19,8.16-26.61,5.04-7.41,12.02-12.95,20.93-16.61,8.79-3.62,17.59-4.57,26.38-2.87,8.81,1.71,16.98,6.1,24.52,13.16,7.55,7.06,13.78,16.54,18.68,28.45,4.91,11.91,7.15,23.04,6.77,33.36-.4,10.32-3.1,19.19-8.16,26.6-5.04,7.41-11.96,12.93-20.75,16.55-8.91,3.67-17.77,4.65-26.56,2.93Zm37.74-37.27c2.37-9.64,.67-21.48-5.13-35.54-5.78-14.06-12.92-23.67-21.37-28.85-8.47-5.17-17.22-5.91-26.22-2.2-9.12,3.76-14.87,10.45-17.24,20.09-2.38,9.64-.67,21.48,5.11,35.54,5.79,14.06,12.92,23.67,21.39,28.84,8.47,5.17,17.26,5.88,26.38,2.13,9-3.71,14.69-10.38,17.07-20.01Zm124.34-54.45l7.63,13.08-75.64,44.1-5.97-10.22,18.74-66.35c2.29-8.05,3.28-14.43,2.94-19.14-.33-4.71-1.57-8.92-3.72-12.63-3.22-5.51-7.66-8.67-13.29-9.48-5.65-.81-12.08,.89-19.29,5.11-11.63,6.78-18.39,15.82-20.25,27.12l-15.4-2.9c1.18-7.41,4.29-14.46,9.33-21.16,5.03-6.69,11.65-12.43,19.87-17.23,11.03-6.43,21.34-8.91,30.92-7.45,9.58,1.46,17.01,6.7,22.28,15.73,3.27,5.62,5.16,11.63,5.68,18.05,.52,6.42-.71,14.79-3.68,25.12l-14.12,49.74,53.98-31.48Zm86.19-64.61l9.22,12.01-69.46,53.31-7.2-9.39,10.2-68.18c1.26-8.27,1.42-14.73,.5-19.36-.92-4.63-2.69-8.65-5.31-12.05-3.89-5.06-8.68-7.63-14.38-7.72-5.69-.09-11.85,2.41-18.48,7.49-10.69,8.2-16.24,18.03-16.67,29.47l-15.64-.94c.24-7.49,2.44-14.88,6.58-22.16,4.14-7.27,9.99-13.81,17.53-19.6,10.13-7.77,20.04-11.54,29.74-11.3,9.68,.24,17.71,4.5,24.08,12.79,3.95,5.16,6.59,10.89,7.91,17.18,1.33,6.3,1.17,14.76-.47,25.38l-7.72,51.13,49.56-38.05ZM186.88,644.7l7.24-15.82,97.02,44.4,27.45-59.99,13.78,6.3-34.71,75.81-110.79-50.71Zm48.54-97.84l8.81-15.01,105.07,61.72-8.81,15-105.07-61.71Zm31-51l10.29-14.04,86.07,63.07,38.99-53.21,12.21,8.95-49.28,67.26-98.28-72.02Zm67.26-86.05l11.66-12.93,90.51,81.59-11.66,12.93-90.51-81.59Zm159.92-27.69l-48.66,42.7,10.01,31.74-13.48,11.83-38.87-127.98,12.95-11.37,121.98,55.08-13.75,12.05-30.17-14.06Zm-13.76-6.45l-59.13-27.55,19.61,62.21,39.51-34.67Zm92.72-154.95l63.03,104.27-12.21,7.38-109.57-39.94,47,77.76-14.9,9.01-63.03-104.27,12.21-7.38,109.57,39.94-47-77.76,14.9-9.01Zm212.29,50.88l-20.38-10.42c-7.05,13.26-18.36,22.4-33.92,27.43-7.73,2.51-15.11,3.48-22.11,2.94-7.01-.54-12.98-2.53-17.94-5.99-4.95-3.46-8.38-8.11-10.27-13.97-2.29-7.06-2.13-14.03,.46-20.91,2.6-6.88,8-14.81,16.19-23.81-6.73-3.43-11.8-6.85-15.21-10.26-3.43-3.41-5.85-7.32-7.27-11.74-2.54-7.84-1.73-15.05,2.42-21.64,4.15-6.59,10.97-11.42,20.47-14.49,8.82-2.86,16.53-2.97,23.12-.35,6.58,2.63,11.09,7.7,13.51,15.21,1.89,5.85,1.69,11.71-.62,17.58-2.31,5.88-7.07,12.78-14.25,20.71l37.86,19.22c1.29-7.37,1.39-15.14,.33-23.34l14.09,.02c1.3,10.8,.8,20.72-1.52,29.76l20.61,10.53-5.53,13.5Zm-94.75-83.42c-2.08,3.54-2.45,7.41-1.09,11.6,.96,2.98,2.69,5.59,5.19,7.83,2.48,2.25,6.83,4.99,12.99,8.23,6.22-6.77,10.3-12.17,12.22-16.21,1.94-4.04,2.31-7.88,1.12-11.52-1.24-3.87-3.59-6.52-7.05-7.96-3.46-1.45-7.61-1.38-12.48,.18-5.19,1.69-8.82,4.29-10.91,7.83Zm61.93,66.77l-43.56-22.14c-6.53,6.99-10.75,12.9-12.67,17.72-1.91,4.83-2.1,9.62-.56,14.36,1.79,5.52,5.63,9.22,11.54,11.09s12.73,1.55,20.46-.95c11.49-3.71,19.75-10.41,24.79-20.09Zm101.39-105.16l4.36,42.25,60.77-6.27,1.54,14.89-60.77,6.27,5.06,49-17.32,1.79-12.51-121.2,85.54-8.82,1.55,15.06-68.22,7.04Zm184.86,88.04l-.67,15.13-88.33-3.88,5.35-121.73,85.91,3.78-.67,15.13-68.53-3.01-1.64,37.39,61.05,2.68-.65,14.78-61.05-2.68-1.73,39.3,70.95,3.12Zm99.2,34.33l-18.18-41.96c-3.24-.43-5.76-.83-7.58-1.2l-29.49-6.08-7.48,36.31-17.06-3.52,24.61-119.33,46.55,9.6c15.46,3.19,26.86,9.39,34.19,18.6,7.35,9.22,9.68,20.3,7.01,33.26-1.89,9.21-5.79,16.58-11.66,22.12-5.88,5.54-13.33,8.92-22.36,10.14l20.04,45.9-18.58-3.83Zm2.88-59.66c6.64-3.49,10.85-9.55,12.64-18.19,1.77-8.63,.31-15.85-4.43-21.62-4.73-5.77-12.49-9.78-23.3-12l-28.97-5.98-11.09,53.7,28.99,5.98c10.79,2.22,19.51,1.6,26.16-1.89Zm174.89-5.41l-45.29,113.12-13.24-5.31-34.12-111.53-33.76,84.36-16.16-6.47,45.28-113.11,13.26,5.31,34.1,111.52,33.76-84.35,16.17,6.47Zm61.24,141.55l-54.93-34.29-27.51,18.74-15.21-9.5,111.33-74.14,14.62,9.12-17.58,132.68-15.49-9.68,4.76-32.94Zm2.2-15.03l9.31-64.56-53.91,36.72,44.6,27.84Zm175.06,44.05l-81.64,90.44-10.6-9.56,6.62-116.43-60.88,67.45-12.92-11.67,81.64-90.44,10.6,9.56-6.62,116.43,60.88-67.44,12.92,11.66Zm34.19,37.05l31.07,40.89c7.79,10.25,12.67,20.9,14.63,31.94,1.97,11.03,.96,21.54-3.06,31.51-4.01,9.97-10.78,18.57-20.29,25.8-9.52,7.23-19.61,11.44-30.3,12.63-10.67,1.19-21.06-.64-31.17-5.5-10.1-4.86-19.04-12.42-26.84-22.67l-31.06-40.89,97.02-73.7Zm-54.53,104.6c5.96,7.85,12.73,13.6,20.31,17.25,7.57,3.64,15.34,4.99,23.3,4.05,7.95-.95,15.54-4.15,22.75-9.63,7.2-5.47,12.33-11.91,15.37-19.33,3.03-7.41,3.83-15.25,2.35-23.53-1.48-8.28-5.2-16.34-11.17-24.2l-19.9-26.19-72.92,55.38,19.91,26.2Zm52.61,94.38c.47-11.23,3.72-21.48,9.77-30.74,6.03-9.26,14.31-16.48,24.82-21.67,10.51-5.19,21.29-7.37,32.3-6.53,11.03,.84,21.15,4.48,30.35,10.94,9.21,6.45,16.53,15.2,21.98,26.23,5.4,10.92,7.85,22,7.38,33.24-.47,11.23-3.71,21.44-9.73,30.63-6.02,9.18-14.34,16.39-24.95,21.63s-21.39,7.46-32.33,6.65c-10.95-.81-21.03-4.45-30.23-10.9-9.21-6.46-16.51-15.14-21.91-26.07-5.44-11.03-7.92-22.16-7.45-33.39Zm37.49,45.46c6.8,4.6,14.31,7.17,22.53,7.7s16.29-1.15,24.2-5.06c7.91-3.9,14.15-9.28,18.73-16.13s7.11-14.37,7.58-22.57c.49-8.2-1.24-16.3-5.2-24.32-3.96-8.02-9.36-14.37-16.22-19.08-6.84-4.71-14.38-7.33-22.6-7.86-8.23-.54-16.3,1.15-24.2,5.06-7.92,3.9-14.16,9.28-18.73,16.13-4.58,6.85-7.08,14.43-7.52,22.73-.43,8.31,1.33,16.46,5.29,24.47s9.33,14.32,16.14,18.93ZM667.46,1701.92c0-8.45-6.85-15.3-15.3-15.3s-15.3,6.85-15.3,15.3,6.85,15.3,15.3,15.3,15.3-6.85,15.3-15.3Zm399.71,52.77c0-8.45-6.85-15.3-15.3-15.3s-15.3,6.85-15.3,15.3,6.85,15.3,15.3,15.3,15.3-6.85,15.3-15.3Zm717.37-753.44l-48.36,48.36-48.29-48.36,48.29-48.28,48.36,48.28Zm-48.36-185.42l-48.29,48.28,48.29,48.36,48.36-48.36-48.36-48.28Zm68.57,68.57l-48.28,48.28,48.28,48.36,48.28-48.36-48.28-48.28Zm-137.13,0l-48.28,48.28,48.28,48.36,48.28-48.36-48.28-48.28Zm64.52,239.76l-7.39-1.63c-31.97,145.68-104.61,279.06-210.07,385.73l5.38,5.32c106.46-107.69,179.8-242.35,212.08-389.42ZM392.68,1508.26c-105.46-106.67-178.09-240.05-210.07-385.73l-7.39,1.63c32.28,147.07,105.61,281.73,212.08,389.42l5.38-5.32Z"/></g></g></svg>