<?xml version="1.0" encoding="UTF-8"?><svg xmlns="http://www.w3.org/2000/svg" viewBox="0 0 1982.32 989"><defs><style>.d{fill:#fad2cf;}</style></defs><g id="a"/><g id="b"><g id="c"><path class="d" d="M0,0L988.97,989l2.14-2.17,2.17,2.17L1982.32,0H0ZM1826.76,6.15l-61.71,61.71-61.68-61.71h123.39Zm-66.02,66.02l-66.02,66.05-66.05-66.05L1694.72,6.15l66.02,66.02ZM428.27,146.84l66.02,66.05-66.02,66.02-66.02-66.02,66.02-66.05Zm-70.36,61.71l-66.02-66.02,66.02-66.02,66.05,66.02-66.05,66.02Zm1121.41,4.34l-66.05,66.02-66.02-66.02,66.02-66.05,66.05,66.05Zm-61.71-70.36l66.02-66.02,66.05,66.02-66.05,66.02-66.02-66.02Zm-707.92,145.04l66.05,66.05-66.05,66.02-66.02-66.02,66.02-66.05Zm-70.36,61.71l-66.02-66.02,66.02-66.05,66.05,66.05-66.05,66.02Zm558.56,4.34l-66.05,66.02-66.02-66.05,66.02-66.02,66.05,66.05Zm-61.71-70.36l66.02-66.05,66.02,66.05-66.02,66.02-66.02-66.02Zm-145.07,145.04l66.05,66.02-66.05,66.05-66.02-66.05,66.02-66.02Zm-70.33,61.71l-66.05-66.05,66.05-66.02,66.02,66.02-66.02,66.05Zm74.68-66.05l66.02-66.02,66.05,66.02-66.05,66.05-66.02-66.05Zm66.02-74.67l-66.02-66.02,66.02-66.05,66.05,66.05-66.05,66.02Zm-4.31,4.31l-66.05,66.05-66.02-66.02,66.05-66.05,66.02,66.02Zm-136.38-4.31l-66.05-66.02,66.05-66.05,66.02,66.05-66.02,66.02Zm-4.34,4.34l-66.02,66.02-66.05-66.02,66.05-66.05,66.02,66.05Zm-136.38-4.34l-66.02-66.02,66.02-66.05,66.02,66.05-66.02,66.02Zm0,8.65l66.02,66.02-66.02,66.05-66.02-66.05,66.02-66.02Zm70.36,70.36l66.02,66.02-66.02,66.05-66.05-66.05,66.05-66.02Zm70.36,70.36l66.02,66.02-66.02,66.02-66.05-66.02,66.05-66.02Zm70.33,70.33l66.05,66.05-66.05,66.02-66.02-66.02,66.02-66.05Zm4.34-4.31l66.02-66.02,66.05,66.02-66.05,66.02-66.02-66.02Zm70.36-70.36l66.02-66.02,66.05,66.02-66.05,66.05-66.02-66.05Zm70.36-70.36l66.02-66.02,66.02,66.02-66.02,66.05-66.02-66.05Zm70.33-70.33l66.05-66.05,66.02,66.05-66.02,66.02-66.05-66.02Zm70.36-70.36l66.05-66.05,66.02,66.05-66.02,66.02-66.05-66.02Zm66.05-74.71l-66.05-66.02,66.05-66.02,66.02,66.02-66.02,66.02Zm-4.34,4.34l-66.02,66.02-66.05-66.02,66.05-66.05,66.02,66.05Zm-136.38-4.34l-66.02-66.02,66.02-66.02,66.02,66.02-66.02,66.02Zm-4.31,4.34l-66.05,66.02-66.02-66.02,66.02-66.05,66.05,66.05Zm-136.42-4.34l-66.02-66.02,66.02-66.02,66.05,66.02-66.05,66.02Zm-4.31,4.34l-66.02,66.02-66.05-66.02,66.02-66.05,66.05,66.05Zm-136.38-4.34l-66.05-66.02,66.05-66.02,66.02,66.02-66.02,66.02Zm-4.34,4.34l-66.02,66.02-66.05-66.02,66.05-66.05,66.02,66.05Zm-136.38-4.34l-66.02-66.02,66.02-66.02,66.02,66.02-66.02,66.02Zm-4.31,4.34l-66.05,66.02-66.02-66.02,66.02-66.05,66.05,66.05Zm-136.42-4.34l-66.02-66.02,66.02-66.02,66.05,66.02-66.05,66.02Zm-4.31,4.34l-66.02,66.02-66.05-66.02,66.05-66.05,66.02,66.05Zm-136.38-4.34l-66.05-66.02,66.05-66.02,66.02,66.02-66.02,66.02Zm0,8.65l66.02,66.05-66.02,66.02-66.05-66.02,66.05-66.05Zm70.36,70.36l66.02,66.05-66.02,66.02-66.05-66.05,66.05-66.02Zm70.33,70.36l66.05,66.02-66.05,66.05-66.02-66.05,66.02-66.02Zm70.36,70.36l66.05,66.02-66.05,66.05-66.02-66.05,66.02-66.02Zm70.36,70.36l66.02,66.02-66.02,66.02-66.02-66.02,66.02-66.02Zm70.36,70.33l66.02,66.05-66.02,66.02-66.05-66.02,66.05-66.05Zm70.36,70.36l66.02,66.05-66.02,66.02-66.05-66.02,66.05-66.05Zm70.33,70.36l66.05,66.02-66.05,66.05-66.02-66.05,66.02-66.02Zm4.34-4.31l66.02-66.05,66.05,66.05-66.05,66.02-66.02-66.02Zm70.36-70.36l66.02-66.05,66.05,66.05-66.05,66.02-66.02-66.02Zm70.36-70.36l66.02-66.02,66.02,66.02-66.02,66.02-66.02-66.02Zm70.33-70.36l66.05-66.02,66.02,66.02-66.02,66.05-66.05-66.05Zm70.36-70.36l66.05-66.02,66.02,66.02-66.02,66.05-66.05-66.05Zm70.36-70.33l66.02-66.05,66.05,66.02-66.05,66.05-66.02-66.02Zm70.36-70.36l66.02-66.05,66.05,66.05-66.05,66.02-66.02-66.02Zm70.36-70.36l66.02-66.05,66.02,66.05-66.02,66.02-66.02-66.02Zm70.33-70.36l66.05-66.02,66.02,66.02-66.02,66.02-66.05-66.02ZM1686.03,6.15l-61.68,61.71-61.71-61.71h123.39Zm-66.02,66.02l-66.02,66.05-66.02-66.05L1553.99,6.15l66.02,66.02ZM1545.33,6.15l-61.71,61.71-61.68-61.71h123.39Zm-66.02,66.02l-66.05,66.05-66.02-66.05L1413.26,6.15l66.05,66.02ZM1404.61,6.15l-61.68,61.71-61.71-61.71h123.39Zm-66.02,66.02l-66.02,66.05-66.05-66.05L1272.57,6.15l66.02,66.02ZM1263.88,6.15l-61.68,61.71-61.68-61.71h123.36Zm-65.99,66.02l-66.05,66.05-66.02-66.05L1131.84,6.15l66.05,66.02ZM1123.18,6.15l-61.71,61.71-61.68-61.71h123.39Zm-66.02,66.02l-66.05,66.05-66.02-66.05L991.11,6.15l66.05,66.02ZM982.46,6.15l-61.68,61.71-61.71-61.71h123.39Zm-66.02,66.02l-66.02,66.05-66.05-66.05L850.42,6.15l66.02,66.02ZM841.73,6.15l-61.68,61.71-61.68-61.71h123.36Zm-65.99,66.02l-66.05,66.05-66.02-66.05L709.69,6.15l66.05,66.02ZM701.03,6.15l-61.71,61.71-61.68-61.71h123.39Zm-66.02,66.02l-66.02,66.05-66.05-66.05L568.99,6.15l66.02,66.02ZM560.31,6.15l-61.68,61.71L436.92,6.15h123.39Zm-66.02,66.02l-66.02,66.05-66.02-66.05L428.27,6.15l66.02,66.02ZM419.61,6.15l-61.71,61.71L296.22,6.15h123.39Zm-66.02,66.02l-66.05,66.05-66.02-66.05L287.54,6.15l66.05,66.02ZM278.89,6.15l-61.71,61.71L155.5,6.15h123.39ZM14.77,6.15h123.39l-61.68,61.71L14.77,6.15ZM80.79,72.17L146.84,6.15l66.02,66.02-66.02,66.05L80.79,72.17Zm70.36,70.36l66.02-66.02,66.05,66.02-66.02,66.02-66.05-66.02Zm70.36,70.36l66.02-66.05,66.05,66.05-66.05,66.02-66.02-66.02Zm70.36,70.36l66.02-66.05,66.05,66.05-66.05,66.02-66.02-66.02Zm70.36,70.36l66.02-66.05,66.02,66.02-66.02,66.05-66.02-66.02Zm70.33,70.33l66.05-66.02,66.02,66.02-66.02,66.05-66.05-66.05Zm70.36,70.36l66.05-66.02,66.02,66.02-66.02,66.05-66.05-66.05Zm70.36,70.36l66.02-66.02,66.05,66.02-66.05,66.02-66.02-66.02Zm70.36,70.36l66.02-66.05,66.05,66.05-66.05,66.02-66.02-66.02Zm70.36,70.36l66.02-66.05,66.02,66.05-66.02,66.02-66.02-66.02Zm70.33,70.33l66.05-66.02,66.02,66.02-66.02,66.05-66.05-66.05Zm70.36,70.36l66.05-66.02,66.02,66.02-66.02,66.05-66.05-66.05Zm136.38,136.38l-66.02-66.02,66.02-66.02,66.05,66.02-66.05,66.02Zm70.36-70.33l-66.02-66.05,66.02-66.02,66.05,66.02-66.05,66.05Zm70.36-70.36l-66.02-66.05,66.02-66.02,66.02,66.02-66.02,66.05Zm70.36-70.36l-66.05-66.02,66.05-66.05,66.02,66.05-66.02,66.02Zm70.36-70.36l-66.05-66.02,66.05-66.05,66.02,66.05-66.02,66.02Zm70.36-70.36l-66.05-66.02,66.05-66.02,66.02,66.02-66.02,66.02Zm70.33-70.33l-66.02-66.05,66.02-66.02,66.05,66.02-66.05,66.05Zm70.36-70.36l-66.02-66.05,66.02-66.02,66.05,66.02-66.05,66.05Zm70.36-70.36l-66.02-66.05,66.02-66.02,66.02,66.05-66.02,66.02Zm70.36-70.36l-66.05-66.02,66.05-66.05,66.02,66.05-66.02,66.02Zm70.36-70.36l-66.05-66.02,66.05-66.05,66.02,66.05-66.02,66.02Zm70.33-70.36l-66.02-66.02,66.02-66.02,66.05,66.02-66.05,66.02Zm70.36-70.33l-66.02-66.05L1835.41,6.15l66.05,66.02-66.05,66.05Zm70.36-70.36l-61.68-61.71h123.36l-61.68,61.71Z"/></g></g></svg>