<?xml version="1.0" encoding="UTF-8"?><svg xmlns="http://www.w3.org/2000/svg" viewBox="0 0 1920 1920"><defs><style>.d{fill:#231f20;}</style></defs><g id="a"/><g id="b"><g id="c"><g><g><path class="d" d="M1748.55,732.95c-2.01-15.26-11.87-26.82-29.6-34.84-17.88-8.17-42.08-10.18-72.91-6.17-46.4,6.01-93.87,25.44-142.43,58.11l5.39,5.86c48.4-27.75,90.02-43.93,124.86-48.56,34.84-4.47,60.73-3.7,77.69,2.16,16.8,6.01,26.05,15.26,27.59,27.9,2.47,18.65-10.79,37.77-39.77,57.34-28.98,19.58-68.75,32.68-119.46,39.31-26.98,3.39-80.77,3.08-161.54-1.39-80.77-4.16-140.58-3.85-179.58,1.23-6.47,.77-12.49,1.85-18.19,2.93-20.04-42.7-69.98-59.04-149.67-48.71-24.66,3.24-49.79,10.48-75.22,21.58-25.43,11.25-46.71,22.81-63.97,34.84-17.11,11.87-35.61,26.82-55.34,44.7-19.58,18.04-32.68,31.14-39.15,39.46l4.93,7.4,12.18-12.8c18.96-20.65,46.4-43.93,82.16-70.13,17.73-13.41,38.07-25.28,61.2-35.76,23.12-10.48,45.47-17.11,67.2-19.89,77.07-10.02,125.63,3.85,145.36,41.31-40.85,8.02-78.46,21.58-112.99,40.69-34.53,19.27-62.12,40.23-82.78,63.04-20.65,22.66-36.07,45.63-46.55,68.75s-14.49,43.47-12.33,60.73c2.31,17.42,9.56,30.21,22.2,38.54,12.48,8.17,29.75,10.94,51.94,8.01,32.53-4.16,65.05-20.81,97.88-49.94,32.83-29.13,58.73-63.04,77.84-101.58,18.96-38.69,26.51-73.37,22.5-104.05-.77-6.47-2.31-12.95-4.47-19.27,29.13-3.39,86.01-1.85,170.79,4.32,84.78,6.16,143.51,7.24,176.49,2.93,58.11-7.55,102.97-23.28,134.72-47.17,31.75-23.89,46.09-47.63,43.01-70.9Zm-552.14,232.6c-18.96,37.3-43.78,69.83-74.3,97.57-30.68,27.75-59.81,43.47-87.55,47.01-41.62,5.39-64.12-5.4-67.51-32.22-2.93-22.2,7.09-50.1,30.06-83.85,22.97-33.91,54.72-65.36,95.11-94.64,40.54-29.29,81.08-47.17,121.62-53.8,2.93,8.48,4.63,15.26,5.39,20.5,3.7,28.98-3.85,62.27-22.81,99.42Z"/><path class="d" d="M1450.59,856.72c-55.8,17.73-109.29,56.42-160.15,115.92-25.28,29.29-47.48,56.88-66.59,82.93-19.11,26.05-42.08,58.73-68.9,97.88-26.98,39.15-48.56,69.52-64.59,90.95-18.81,1.54-63.97,1.7-135.49,.31,10.17-22.97,14.33-42.54,12.18-59.04-4.01-31.29-27.9-44.08-71.68-38.38-31.29,4.01-59.34,16.65-84.47,37.76-23.12,19.42-41.62,42.7-55.65,69.52-32.68,.77-59.19-4.93-81.85-17.26-30.06-16.65-47.01-39-50.71-67.21-1.54-12.18-.77-23.58,2.16-34.68,56.42,3.39,106.98,2.16,151.83-3.7,44.86-5.86,80.46-16.8,106.82-32.99,26.36-16.19,38.38-32.53,36.38-49.02-1.85-13.41-12.49-23.74-32.22-30.83-19.58-7.09-45.01-8.79-76.15-4.78-53.02,6.94-95.72,19.88-128.25,38.84-32.52,18.96-54.57,41-65.82,66.28-45.16-4.78-84.01-8.94-116.68-12.64,60.42-44.4,124.39-110.37,191.91-198.08,4.78-.15,12.48-.93,22.81-2.16,41.16-5.4,83.24-20.19,126.09-44.55,43.01-24.2,79.69-51.48,110.06-81.85,30.52-30.52,55.03-61.35,73.68-92.95,18.5-31.44,26.51-57.19,24.05-77.07-3.55-27.28-25.9-38.23-67.05-32.99-32.06,4.16-67.05,22.35-104.66,54.57-14.34,12.33-31.45,30.98-51.64,55.65-20.19,24.51-36.38,45.16-48.55,61.66-12.18,16.65-29.9,41.47-53.18,74.45-23.28,32.83-41,57.5-52.87,73.53-37.76-2.16-67.05-12.95-87.86-32.52-20.81-19.57-33.29-44.7-37.3-75.53l-.77-6.47c4.78-.31,12.49-.93,22.81-2.31,40.39-5.24,78-16.18,113.14-32.83,34.99-16.65,63.51-35.3,85.24-55.95,21.73-20.65,38.54-42.08,50.25-63.97,11.72-22.04,16.49-41.46,14.18-58.42-4.47-35.14-34.99-49.02-91.25-41.77-30.83,4.01-60.73,14.49-89.87,31.45-28.98,17.11-52.25,37.3-69.67,61.04-17.42,23.58-30.67,48.86-39.46,75.69-8.94,26.98-12.33,53.49-10.17,79.69-32.83-1.08-57.96-8.48-75.69-22.2-17.57-13.87-27.9-32.22-30.83-55.18-5.09-39,9.71-81.23,44.39-126.4,34.68-45.32,80.46-77.69,137.49-97.42l-2.77-5.7c-57.03,19.27-103.89,53.33-140.73,101.89-36.99,48.71-52.72,93.57-47.48,134.72,3.24,24.2,14.33,43.47,33.6,57.8,19.27,14.18,46.86,20.96,82.93,20.35l.15,1.23c4.47,34.22,17.88,62.58,40.08,85.09,22.35,22.51,52.87,35.3,91.72,38.69-65.67,88.63-126.24,154.3-181.43,196.69-118.07-13.41-192.68-18.03-223.66-14.03-30.98,4.01-53.64,11.41-68.13,22.35-14.49,10.94-20.81,23.43-18.96,37.76,1.85,14.34,13.87,26.51,35.92,36.69,21.89,10.17,49.17,13.1,81.7,8.94,65.51-8.48,129.02-33.45,190.68-74.91,44.24,5.7,88.48,10.33,132.57,13.87-2.93,10.48-3.7,21.74-2.31,33.45,4.01,30.21,21.43,54.72,52.26,73.53,22.97,14.03,50.25,20.96,81.85,21.12,2.31,0,4.62,0,6.94-.15l-3.08,6.47c-12.79,30.37-17.42,59.04-13.87,86.32,3.55,27.28,16.49,47.48,38.84,60.42-28.98,14.8-56.42,23.89-82.16,27.13-25.74,3.39-45.47,1.23-59.34-6.47-13.72-7.71-21.58-19.11-23.58-34.22-2.93-23.43,7.86-48.25,32.68-74.3,16.49-17.42,37.76-31.91,63.97-43.47l-4.93-6.63c-28.52,11.87-51.48,26.67-69.06,44.39-27.13,27.59-39.15,54.1-35.92,79.69,2.16,16.8,11.25,30.06,26.98,39.46,15.72,9.4,37.77,12.33,66.13,8.63,28.52-3.7,59.5-13.87,92.95-30.52,20.19,9.25,45.47,12.02,75.69,8.01,84.62-10.94,171.56-70.44,261.12-178.5,6.16-.31,16.34-1.54,30.67-3.39,14.33-1.85,27.28-4.32,38.69-7.55-18.34,27.9-32.83,47.17-43.47,57.8-4.01,3.24-5.86,5.55-5.55,7.4,0,.77,.93,1.08,2.78,.92,14.18-1.85,39.15-26.98,74.76-75.22,24.82-9.71,44.24-21.12,58.42-34.22,14.18-13.1,20.81-23.58,19.73-31.29-.77-6.47-7.71-8.94-20.81-7.24-12.95,1.69-25.59,8.63-37.92,20.81-12.33,12.18-26.05,29.14-41.31,50.87-17.42,4.93-37.61,8.94-60.58,11.87l-8.48,1.08c24.05-29.14,52.87-67.36,86.63-114.68,33.76-47.32,61.81-86.63,84.16-117.92,22.51-31.29,47.94-61.35,76.61-90.17,28.67-28.98,55.34-48.25,80.15-57.96l-1.23-3.85Zm-757.61,201.93c29.44-17.57,67.05-29.29,112.99-35.15,29.13-3.85,51.64-3.08,67.82,2.16,16.03,5.09,24.82,12.95,26.05,23.28,1.85,14.33-8.79,28.82-32.06,43.47-23.12,14.8-52.25,24.35-87.09,28.82-34.84,4.47-84.62,4.16-149.21-1.23,11.56-23.43,31.91-43.93,61.5-61.35Zm89.71-274.38c37.15-52.25,68.6-93.87,94.49-125.01,36.22-43.78,69.67-67.82,100.5-71.83,30.67-3.85,47.48,4.78,50.25,25.9,2.31,17.88-5.55,41.62-23.43,71.52-18.04,29.9-41.31,59.35-69.83,88.63-28.67,29.29-62.43,55.65-101.43,79.23-39.15,23.58-76.45,37.61-111.91,42.24-9.09,1.23-15.88,1.85-20.19,2,17.26-22.97,44.39-60.58,81.54-112.68Zm-225.51-84.93c9.1-25.74,22.04-49.94,38.84-72.45,16.96-22.35,38.38-41.62,64.28-57.5,26.05-15.88,51.95-25.59,78-28.98,47.17-6.01,72.76,5.39,76.45,34.38,2.01,15.26-2.62,33.14-13.56,53.64-10.95,20.65-26.67,40.69-47.01,60.42-20.35,19.58-46.71,37.15-79.08,52.72-32.37,15.72-66.59,25.9-102.51,30.52-6.94,.92-16.19,1.7-27.44,2.16-.93-24.05,3.08-49.02,12.02-74.91Zm-262.82,487.4c-29.44,3.85-53.64,1.39-72.6-7.4-18.96-8.79-29.29-19.11-30.83-30.98-1.54-11.87,2.77-22.04,12.95-30.52,10.17-8.32,27.74-14.18,52.87-17.42,25.13-3.24,93.57,2.93,205.32,18.5-54.57,37.77-110.37,60.58-167.71,67.82Zm522.4,2.77c22.66-18.96,47.32-30.21,73.68-33.6,32.06-4.16,49.79,6.78,53.18,32.68,2,15.72-1.23,34.37-9.87,56.26-48.55-.77-161.54,9.09-169.1,9.4,13.41-25.28,30.83-46.71,52.1-64.74Zm-74.45,164.63c-3.55-27.28,1.54-56.42,15.11-87.25,0,0,1.08-2,2.31-4.16,6.01-.31,114.77-7.2,169.86-9.4-13.1,28.98-32.68,57.96-58.88,87.25-26.21,29.13-55.96,52.87-89.25,71.37-22.5-11.25-35.61-30.52-39.15-57.8Zm231.37,15.72c-35.92,28.82-73.99,45.93-114.38,51.17-27.28,3.55-50.4,1.7-69.36-5.55,35.45-18.81,67.52-43,96.34-72.6,28.67-29.75,50.25-59.5,64.43-89.1,50.41,1.39,94.95,.92,133.33-1.39-37.61,49.48-74.45,88.48-110.37,117.46Zm301.81-207.02c3.39-.31,5.39,1.85,6.17,6.94,.62,4.93-4.01,12.33-13.72,22.2-9.71,9.87-25.13,18.96-46.09,27.44,26.67-36.53,44.39-55.34,53.64-56.57Z"/></g><path class="d" d="M960.01,1868.78c-501.11,0-908.79-407.68-908.79-908.78S458.9,51.23,960.01,51.23s908.78,407.68,908.78,908.78-407.68,908.78-908.78,908.78Zm0-1794.96c-488.64,0-886.19,397.54-886.19,886.18s397.55,886.18,886.19,886.18,886.18-397.54,886.18-886.18S1448.65,73.83,960.01,73.83Z"/><path class="d" d="M960.01,1920C430.66,1920,0,1489.35,0,960.01S430.66,0,960.01,0s959.99,430.66,959.99,960.01-430.65,959.99-959.99,959.99Zm0-1908.7C436.88,11.3,11.3,436.88,11.3,960.01s425.59,948.7,948.71,948.7,948.7-425.59,948.7-948.7S1483.12,11.3,960.01,11.3Z"/></g></g></g></svg>