<?xml version="1.0" encoding="UTF-8"?><svg xmlns="http://www.w3.org/2000/svg" viewBox="0 0 1920 1919.99"><defs><style>.d{fill:#222c46;}</style></defs><g id="a"/><g id="b"><g id="c"><path class="d" d="M692.94,710.96c8.58,7.08,12.87,17.06,12.87,29.92,0,8.8-2.31,17.33-6.92,25.59-4.62,8.26-10.19,15.82-16.74,22.69-6.54,6.87-15.18,15.13-25.9,24.78-8.8,8.16-15.34,14.32-19.63,18.51-4.29,4.18-8.16,8.64-11.59,13.36h65.33c5.79,0,10.14-.49,13.04-1.45,2.89-.97,4.88-2.58,5.95-4.83,1.07-2.25,1.93-5.63,2.58-10.14h5.47c0,19.75,.43,34.01,1.29,42.81-4.72-1.08-20.71-1.61-47.95-1.61h-75.31v-5.47c3.64-3.86,9.87-9.98,18.66-18.34,12.23-11.37,22.42-21.61,30.58-30.73s15.18-19.47,21.09-31.06c5.9-11.58,8.85-23.92,8.85-37.01,0-23.17-10.73-34.76-32.19-34.76-17.59,0-31.97,10.09-43.12,30.26l-5.15-2.9c5.58-11.59,13.52-21.19,23.82-28.81,10.3-7.61,23.49-11.43,39.58-11.43,15.02,0,26.82,3.55,35.4,10.63Zm149.01,142.25v62.75h-25.75v-62.75h-83.99v-6.76l104.59-146.11h5.15v131.32h3.87c5.79,0,10.13-.49,13.03-1.45,2.9-.98,4.88-2.58,5.96-4.83,1.07-2.25,1.93-5.63,2.57-10.14h5.47c0,18.03,.43,31.22,1.29,39.58-2.79-.64-13.52-1.17-32.19-1.6Zm-25.75-21.56v-92.05l-65.01,92.05h65.01Zm119.72,43.44h-10.62l87.54-236.87h10.62l-87.54,236.87Zm226.57-164.29c11.8,6.98,21.03,16.9,27.68,29.77,6.64,12.87,9.98,27.67,9.98,44.41s-3.44,32.56-10.3,46.18c-6.87,13.63-16.47,24.36-28.8,32.18-12.34,7.83-26.44,11.75-42.33,11.75-14.8,0-28.11-3.49-39.9-10.46-11.8-6.97-21.09-16.9-27.84-29.77-6.76-12.87-10.14-27.78-10.14-44.74s3.38-32.24,10.14-45.87c6.76-13.62,16.3-24.34,28.65-32.18,12.33-7.83,26.55-11.75,42.64-11.75,15.02,0,28.43,3.49,40.23,10.47Zm-67.75,5.14c-7.19,6.55-12.76,16.1-16.73,28.65-3.98,12.55-5.96,27.41-5.96,44.57,0,27.25,4.61,47.43,13.84,60.51,9.22,13.09,21.13,19.63,35.72,19.63,9.22,0,17.43-3.33,24.63-9.98,7.18-6.64,12.76-16.24,16.73-28.8s5.96-27.41,5.96-44.57c0-27.03-4.62-47.09-13.84-60.19-9.22-13.08-21.14-19.63-35.72-19.63-9.23,0-17.43,3.27-24.63,9.81Zm244.11-4.02c-3.21,7.51-8.79,18.99-16.73,34.44-8.37,16.09-15.13,29.98-20.28,41.68-5.14,11.7-9.55,25.11-13.19,40.23-3.65,15.13-5.47,31.17-5.47,48.11,0,4.29,.21,9.45,.64,15.45,.43,4.72,.64,8.06,.64,9.98,0,4.94-1.4,8.91-4.18,11.91-2.79,3-6.44,4.51-10.95,4.51s-8.31-1.73-10.78-5.16c-2.47-3.43-3.7-7.72-3.7-12.87,0-16.53,2.52-32.83,7.56-48.92,5.04-16.1,11.15-30.95,18.34-44.58,7.18-13.62,16.58-29.98,28.16-49.07l15.13-25.42h-76.27c-5.79,0-10.14,.47-13.04,1.45-2.9,.96-4.89,2.57-5.96,4.82-1.07,2.26-1.93,5.63-2.57,10.14h-5.47c0-21.24-.44-36.26-1.29-45.05,4.93,1.08,20.92,1.61,47.95,1.61h71.45v6.76Zm-632.79,379.57c8.58,7.08,12.87,17.06,12.87,29.92,0,8.8-2.31,17.33-6.93,25.59-4.61,8.26-10.19,15.83-16.73,22.69-6.55,6.87-15.18,15.13-25.91,24.79-8.79,8.15-15.34,14.32-19.63,18.5-4.29,4.19-8.16,8.64-11.59,13.36h65.33c5.79,0,10.14-.49,13.04-1.45,2.9-.97,4.88-2.58,5.96-4.83,1.07-2.25,1.93-5.63,2.57-10.13h5.47c0,19.74,.43,34,1.29,42.8-4.72-1.07-20.71-1.6-47.96-1.6h-75.31v-5.48c3.64-3.86,9.87-9.97,18.67-18.34,12.23-11.37,22.42-21.61,30.58-30.73,8.15-9.12,15.17-19.47,21.08-31.06,5.9-11.58,8.85-23.92,8.85-37.01,0-23.17-10.73-34.76-32.19-34.76-17.6,0-31.97,10.09-43.12,30.26l-5.15-2.9c5.58-11.59,13.52-21.19,23.81-28.81,10.3-7.61,23.49-11.42,39.59-11.42,15.01,0,26.81,3.54,35.4,10.62Zm197.92-.16c11.8,6.98,21.03,16.9,27.68,29.77,6.65,12.87,9.98,27.68,9.98,44.41s-3.43,32.56-10.3,46.18c-6.87,13.63-16.47,24.36-28.81,32.19-12.33,7.83-26.44,11.74-42.32,11.74-14.8,0-28.11-3.49-39.91-10.46-11.8-6.97-21.08-16.9-27.84-29.77-6.76-12.87-10.13-27.78-10.13-44.74s3.38-32.23,10.13-45.86c6.76-13.63,16.3-24.35,28.65-32.19,12.33-7.83,26.55-11.74,42.64-11.74,15.02,0,28.42,3.49,40.23,10.46Zm-67.74,5.15c-7.19,6.54-12.77,16.09-16.74,28.64-3.97,12.56-5.95,27.41-5.95,44.57,0,27.26,4.61,47.43,13.84,60.51,9.22,13.09,21.13,19.64,35.73,19.64,9.22,0,17.43-3.33,24.62-9.98s12.76-16.25,16.74-28.81c3.97-12.55,5.95-27.4,5.95-44.57,0-27.03-4.61-47.09-13.84-60.18-9.23-13.09-21.14-19.64-35.73-19.64-9.22,0-17.43,3.27-24.62,9.82Zm255.69-4.99c8.58,7.08,12.87,17.06,12.87,29.92,0,8.8-2.31,17.33-6.92,25.59-4.62,8.26-10.19,15.83-16.74,22.69-6.54,6.87-15.18,15.13-25.9,24.79-8.8,8.15-15.34,14.32-19.63,18.5-4.29,4.19-8.16,8.64-11.59,13.36h65.33c5.79,0,10.14-.49,13.04-1.45,2.89-.97,4.88-2.58,5.95-4.83,1.07-2.25,1.93-5.63,2.58-10.13h5.47c0,19.74,.43,34,1.29,42.8-4.72-1.07-20.71-1.6-47.95-1.6h-75.31v-5.48c3.64-3.86,9.87-9.97,18.66-18.34,12.23-11.37,22.42-21.61,30.58-30.73,8.15-9.12,15.18-19.47,21.09-31.06,5.9-11.58,8.85-23.92,8.85-37.01,0-23.17-10.73-34.76-32.19-34.76-17.59,0-31.97,10.09-43.12,30.26l-5.15-2.9c5.58-11.59,13.52-21.19,23.82-28.81,10.3-7.61,23.49-11.42,39.58-11.42,15.02,0,26.82,3.54,35.4,10.62Zm173.47,0c8.58,7.08,12.87,17.06,12.87,29.92,0,8.8-2.31,17.33-6.93,25.59-4.61,8.26-10.19,15.83-16.73,22.69-6.55,6.87-15.18,15.13-25.91,24.79-8.79,8.15-15.34,14.32-19.63,18.5-4.29,4.19-8.16,8.64-11.59,13.36h65.33c5.79,0,10.14-.49,13.04-1.45,2.9-.97,4.88-2.58,5.96-4.83,1.07-2.25,1.93-5.63,2.57-10.13h5.47c0,19.74,.43,34,1.29,42.8-4.72-1.07-20.71-1.6-47.96-1.6h-75.31v-5.48c3.64-3.86,9.87-9.97,18.67-18.34,12.23-11.37,22.42-21.61,30.58-30.73,8.15-9.12,15.17-19.47,21.08-31.06,5.9-11.58,8.85-23.92,8.85-37.01,0-23.17-10.73-34.76-32.19-34.76-17.6,0-31.97,10.09-43.12,30.26l-5.15-2.9c5.58-11.59,13.52-21.19,23.81-28.81,10.3-7.61,23.49-11.42,39.59-11.42,15.01,0,26.81,3.54,35.4,10.62Zm-305.4,477.24c-335.65,0-608.73-273.08-608.73-608.73S624.35,351.26,960,351.26s608.73,273.08,608.73,608.74-273.08,608.73-608.73,608.73Zm0-1202.33c-327.31,0-593.59,266.29-593.59,593.6s266.28,593.59,593.59,593.59,593.59-266.28,593.59-593.59S1287.31,366.4,960,366.4Zm0,1553.59C430.65,1919.99,0,1489.34,0,960S430.65,0,960,0s960,430.65,960,960-430.65,959.99-960,959.99Zm0-1904.86C439,15.14,15.14,439,15.14,960s423.86,944.86,944.86,944.86,944.86-423.86,944.86-944.86S1481,15.14,960,15.14Zm776.18,937.83l-48.28,48.28,48.28,48.36,48.36-48.36-48.36-48.28Zm0,0l-48.28,48.28,48.28,48.36,48.36-48.36-48.36-48.28Zm0-137.13l-48.28,48.28,48.28,48.36,48.36-48.36-48.36-48.28Zm0,0l-48.28,48.28,48.28,48.36,48.36-48.36-48.36-48.28Zm68.57,68.57l-48.28,48.28,48.28,48.36,48.28-48.36-48.28-48.28Zm0,0l-48.28,48.28,48.28,48.36,48.28-48.36-48.28-48.28Zm-137.13,0l-48.28,48.28,48.28,48.36,48.28-48.36-48.28-48.28Zm0,0l-48.28,48.28,48.28,48.36,48.28-48.36-48.28-48.28ZM178.88,952.96l-48.28,48.28,48.28,48.36,48.36-48.36-48.36-48.28Zm0-137.13l-48.28,48.28,48.28,48.36,48.36-48.36-48.36-48.28Zm68.57,68.57l-48.28,48.28,48.28,48.36,48.28-48.36-48.28-48.28Zm-137.13,0l-48.28,48.28,48.28,48.36,48.28-48.36-48.28-48.28Zm1273.86,105.05H512.61v5.68h871.56v-5.68ZM614.96,378.85c-.14,7.41-1.73,14.28-4.77,20.61-3.04,6.32-7.41,11.8-13.1,16.45-7.22,5.91-15.38,9.7-24.49,11.4s-21.1,1.7-35.99,0c-11.27,8.3-23.4,13.38-36.39,15.25-12.99,1.86-25.47,.44-37.44-4.28-11.98-4.72-22.3-12.37-30.97-22.98-9.03-11.04-14.57-23.21-16.59-36.52-2.03-13.3-.48-26.3,4.66-38.99s13.5-23.77,25.1-33.25c11.48-9.39,23.95-15.34,37.4-17.86,13.45-2.51,26.45-1.46,38.99,3.16,12.54,4.63,23.37,12.51,32.49,23.66,7.69,9.41,12.87,19.59,15.54,30.55,2.67,10.96,2.77,21.91,.32,32.86-2.45,10.95-7.26,21.09-14.41,30.41,7.13,.92,13.21,.83,18.25-.27,5.03-1.1,9.4-3.18,13.12-6.22,8.09-6.62,12.41-15.62,12.95-27.01l15.36,3.04Zm-142.48,40.83c9.38,3.55,19.05,4.44,29.02,2.68,9.96-1.76,19.15-6.09,27.57-12.97,8.31-6.8,14.29-14.88,17.94-24.26s4.66-19.01,3.04-28.91c-1.62-9.9-5.82-19-12.62-27.32-6.8-8.31-14.89-14.24-24.27-17.79-9.39-3.55-19.03-4.47-28.94-2.76-9.91,1.72-19.02,5.98-27.33,12.77-8.43,6.89-14.49,15.04-18.19,24.46-3.7,9.42-4.75,19.08-3.13,28.98,1.62,9.9,5.83,19.01,12.62,27.32,6.8,8.31,14.88,14.24,24.27,17.8Zm157.06-78.09c-14.78-5.54-26.67-17.91-35.68-37.09l-35.86-76.34,19.19-9.01,35.49,75.57c13.52,28.77,32.87,37.24,58.06,25.41,12.27-5.77,20.01-13.73,23.19-23.89,3.19-10.15,1.36-22.53-5.49-37.1l-35.49-75.57,18.6-8.74,35.85,76.34c9.08,19.31,11,36.39,5.81,51.24-5.2,14.85-16.75,26.48-34.65,34.88-17.9,8.41-34.23,9.84-49.01,4.3Zm220.67-98.22l-77.06,16.58-8.16,39.68-21.34,4.59,34.48-159.14,20.51-4.41,97.07,130.85-21.75,4.68-23.75-32.83Zm-10.81-15.01l-46.56-64.34-16,77.79,62.56-13.45Zm201.05-102.21l-2.99,148.3-17.38-.35-86.74-112.39-2.23,110.59-21.19-.42,2.99-148.31,17.38,.35,86.74,112.39,2.24-110.59,21.18,.43Zm72.05,10.18l60.29,16.54c15.12,4.15,27.71,10.83,37.79,20.04,10.07,9.21,16.86,20.12,20.35,32.72,3.5,12.61,3.33,25.93-.52,39.96-3.85,14.03-10.49,25.57-19.94,34.63-9.45,9.05-20.84,14.97-34.2,17.75s-27.6,2.09-42.73-2.05l-60.29-16.54,39.25-143.05Zm24.68,141.47c11.58,3.18,22.38,3.72,32.4,1.63,10.02-2.08,18.53-6.53,25.52-13.32,6.99-6.8,11.95-15.51,14.86-26.14,2.92-10.63,3.1-20.64,.55-30.06-2.54-9.42-7.59-17.57-15.14-24.49-7.55-6.9-17.12-11.94-28.7-15.12l-38.62-10.6-29.5,107.49,38.62,10.6Zm122.17,55.87c-7.15-11.67-10.81-24.24-10.98-37.7-.18-13.45,3.29-26.37,10.39-38.74,7.1-12.38,16.51-21.88,28.22-28.52s24.4-9.81,38.09-9.53,27.02,4.15,40.01,11.6c12.87,7.38,22.87,16.92,30.01,28.59,7.15,11.68,10.79,24.2,10.95,37.56,.15,13.36-3.36,26.29-10.54,38.79-7.17,12.5-16.56,22.05-28.18,28.66-11.61,6.61-24.26,9.77-37.94,9.49-13.69-.28-26.96-4.11-39.82-11.49-12.99-7.46-23.06-17.02-30.2-28.7Zm68.73,20.52c9.99,.04,19.33-2.46,28-7.5s15.68-12.21,21.03-21.52c5.34-9.31,8-18.99,7.98-29.02-.02-10.04-2.57-19.36-7.64-27.97-5.08-8.62-12.33-15.63-21.77-21.05-9.44-5.41-19.22-8.17-29.33-8.28-10.13-.11-19.52,2.36-28.2,7.39-8.68,5.04-15.68,12.22-21.03,21.53-5.34,9.31-8,18.98-7.98,29.02,.02,10.03,2.63,19.39,7.83,28.07,5.19,8.68,12.5,15.73,21.94,21.15,9.43,5.41,19.15,8.14,29.15,8.17Zm65.63,76.35c-.23-3.69,.93-6.96,3.46-9.81,2.53-2.85,5.64-4.39,9.33-4.61,3.69-.22,7.01,.98,9.97,3.61,2.96,2.62,4.52,5.76,4.69,9.4s-1.01,6.89-3.54,9.74c-2.53,2.85-5.65,4.39-9.33,4.61s-6.96-.93-9.81-3.46c-2.96-2.63-4.55-5.78-4.77-9.47Zm40.65-42.97c4.29-1.96,8.44-3.13,12.48-3.53,4.03-.39,9.09-.62,15.19-.69,7.51,.04,13.47-.38,17.86-1.3s8.28-3.27,11.66-7.08c4.59-5.17,6.26-11.11,5.01-17.79-1.26-6.67-5.42-13.16-12.5-19.44-12.36-10.97-25.53-15.18-39.49-12.64l-4.26-18.51c9.5-1.77,19.07-1.12,28.71,1.95s19.01,8.64,28.1,16.7c11.52,10.21,18.44,20.83,20.75,31.85s-.42,20.92-8.2,29.69c-3.85,4.33-7.96,7.53-12.33,9.59-4.38,2.07-8.56,3.32-12.53,3.75-3.98,.44-9.02,.69-15.11,.76-7.8,.07-14.05,.67-18.74,1.8-4.69,1.14-8.95,3.87-12.79,8.2l-15.86-14.06c3.75-4.23,7.77-7.32,12.05-9.28ZM535.77,1667.3l-66.21-42.8-33.83,22.29-18.33-11.85,136.94-88.1,17.62,11.39-23.94,161.15-18.68-12.08,6.43-40Zm2.97-18.27l12.59-78.41-66.33,43.67,53.74,34.74Zm13.44-150.78l21.71,14.03,9.25,38.78-16.02-10.35-14.94-42.46Zm43.42,237.51c-8.28-7.15-14.11-14.42-17.49-21.77l13.55-12.29c3.28,6.86,8.4,13.44,15.35,19.75,6.95,6.3,14.74,11.23,23.35,14.79,11.36,4.69,20.64,6.27,27.85,4.73,7.21-1.53,12.13-5.5,14.77-11.9,1.94-4.7,1.98-9.16,.13-13.36-1.86-4.21-4.72-8.02-8.57-11.44-3.86-3.43-9.5-7.82-16.92-13.17-9.29-6.74-16.59-12.65-21.9-17.75-5.31-5.09-9.16-11.15-11.54-18.17-2.37-7.01-1.76-14.9,1.86-23.65,3.02-7.31,7.66-13.11,13.94-17.4,6.27-4.29,14.06-6.58,23.35-6.87,9.29-.3,19.74,1.96,31.37,6.76,8.09,3.34,15.63,7.67,22.61,12.99,6.97,5.32,12.45,11.1,16.46,17.34l-12.93,13c-4.24-6.02-9.23-11.33-14.98-15.92s-11.75-8.17-18.02-10.76c-11.11-4.58-20.27-5.99-27.49-4.23s-12.15,5.84-14.79,12.24c-1.94,4.7-1.95,9.16-.03,13.4,1.92,4.23,4.86,8.11,8.83,11.66,3.95,3.55,9.54,7.88,16.75,12.99,9.29,6.73,16.56,12.64,21.81,17.71,5.24,5.07,9.07,11.08,11.47,18.03,2.41,6.95,1.83,14.74-1.73,23.35-2.96,7.18-7.63,12.94-14,17.26-6.37,4.33-14.25,6.58-23.64,6.75-9.39,.18-19.9-2.14-31.53-6.93-10.32-4.26-19.61-9.96-27.89-17.12Zm245.97-75.75l-27.17,145.82-20.63-3.84,23.79-127.7-32.91-6.13,3.38-18.12,53.54,9.98Zm109.98,81.27c9.48,8.54,13.83,19.72,13.04,33.54-.5,8.74-3.04,16.49-7.6,23.23s-11.15,11.88-19.78,15.42c-8.62,3.53-19.07,4.95-31.34,4.24-10.44-.6-20.43-2.76-29.98-6.5s-17.34-8.6-23.36-14.6l10.69-16.16c4.8,5.09,11.06,9.3,18.8,12.65,7.73,3.35,15.96,5.27,24.71,5.77,11.14,.64,19.92-1.22,26.32-5.59,6.41-4.38,9.84-10.65,10.32-18.83,.51-8.88-2.49-15.82-8.99-20.79-6.5-4.97-17.94-7.92-34.3-8.86l-33.63-1.94,12.27-76.98,83.57,4.8-1.06,18.4-65.79-3.78-6.36,40.38,16.5,.95c21.16,1.21,36.48,6.09,45.96,14.63Zm216.15-98.89l29.23,145.43-20.78,4.18-13.03-64.82-83.51,16.78,13.03,64.82-20.78,4.18-29.23-145.43,20.78-4.18,12.57,62.53,83.51-16.78-12.57-62.53,20.78-4.18Zm181.28,86.15l-47.43-29.17c-3.52,1.83-6.32,3.19-8.39,4.08l-33.66,14.52,17.87,41.45-19.46,8.39-58.73-136.21,53.12-22.9c17.64-7.6,33.34-9.38,47.09-5.31,13.75,4.07,23.82,13.5,30.2,28.29,4.53,10.5,5.79,20.58,3.79,30.21-2,9.63-7.07,18.2-15.22,25.71l52.02,31.81-21.21,9.14Zm-38.76-61.52c4.2-8.11,4.17-17.1-.08-26.96-4.25-9.86-10.75-16.02-19.5-18.48-8.76-2.46-19.29-1.03-31.62,4.28l-33.08,14.26,26.43,61.3,33.08-14.26c12.32-5.31,20.58-12.02,24.77-20.14Zm109.06,18.09c-10.56,2.89-19.84,3.7-27.83,2.41l-2.67-18.1c7.52,1.09,15.85,.5,24.95-1.76s17.54-5.98,25.29-11.16c10.22-6.83,16.7-13.66,19.44-20.49,2.73-6.84,2.18-13.14-1.66-18.9-2.82-4.23-6.5-6.74-11.03-7.54-4.53-.81-9.29-.55-14.28,.75-5,1.29-11.78,3.53-20.36,6.72-10.77,3.97-19.75,6.73-26.94,8.31s-14.36,1.4-21.51-.54c-7.15-1.93-13.35-6.84-18.61-14.71-4.4-6.58-6.63-13.67-6.69-21.27-.07-7.6,2.37-15.34,7.29-23.22,4.93-7.88,12.62-15.31,23.07-22.29,7.29-4.86,15.08-8.71,23.38-11.54,8.31-2.82,16.16-4.16,23.56-4.01l3.61,17.98c-7.37,.16-14.56,1.35-21.57,3.57-7.01,2.22-13.34,5.22-18.98,8.98-9.98,6.67-16.26,13.5-18.82,20.47-2.56,6.98-1.91,13.35,1.93,19.1,2.82,4.23,6.53,6.73,11.11,7.49,4.59,.76,9.45,.48,14.6-.84,5.15-1.32,11.86-3.55,20.12-6.69,10.78-3.97,19.73-6.72,26.85-8.26,7.13-1.53,14.26-1.36,21.37,.51,7.12,1.88,13.26,6.69,18.44,14.44,4.32,6.47,6.5,13.55,6.54,21.24,.04,7.7-2.48,15.51-7.56,23.4-5.08,7.9-12.86,15.34-23.31,22.33-9.28,6.2-19.2,10.75-29.75,13.63Z"/></g></g></svg>