<?xml version="1.0" encoding="UTF-8"?><svg xmlns="http://www.w3.org/2000/svg" viewBox="0 0 1920 1604.12"><defs><style>.d{fill:#feeeec;}.e{fill:#b2b9c5;}.f{fill:#222c46;}</style></defs><g id="a"/><g id="b"><g id="c"><g><path class="d" d="M1134.98,1405.27c4.1-7.74,9.46-14.86,12.4-21.49,2.94-6.63,5.35-13.4,19.28-11.05,13.93,2.35,20.9,8.24,37.52-.39,16.62-8.63,37.36-18.71,49.38-34.59,12.02-15.88,68.05-102.36,71.77-107.64,3.72-5.28,7.29-10.02,7.81-16.16,.52-6.14,2.26-9.38,6.6-15.92,4.34-6.53,44.59-72.74,48.73-85.9,4.14-13.16,6.56-10.5,9.99-14.71,3.43-4.21,17.57-22.65,23.85-32.09,6.27-9.44,13.08-21.87,25.65-18.75,12.58,3.13,36.48,11.9,48.33,14.54,11.85,2.64,24.77,5.58,42.16-4.84,17.4-10.42,32.33-18.08,40.5-18.72,8.17-.64,14.07-1.32,22.62-7.57,0,0,33.45-22.36,46.17-24.79,12.72-2.43,24.24-4.4,24.25-1,0,3.4,2.05,4.42,12.5,6.95,10.45,2.53,20.82,5.34,24.91,7.38,4.09,2.04,7.83,3.05,9.41,7.5,1.58,4.45,2.36,3.27,6.73-1.42,4.37-4.69,17.11-8.35,19.87-3.12,2.76,5.23,2.05,9.53,8.67,4.52,6.62-5.01,16.27-11.52,22.4-11.86,6.13-.35,9.64-.17,24.68-10.01,15.04-9.84,42.62-25.4,54.82-27.04,12.2-1.64,34.76-12.38,42.19-18.1,7.43-5.72,11.4-14.08,14.61-22.49,3.21-8.41,9.46-16.61,6.41-23.63-3.05-7.01-3.26-9.08-4.55-16.86-1.29-7.78-5.03-41.89-9.36-51.57-4.33-9.68-6.67-17.59-7.75-21.59-1.08-4-2.13-7.54-5.95-6.56-3.82,.97-5.24-.65-5.57,3.44-.34,4.09-2.98,.74-4.93-3.5-1.94-4.24-24.08-36.08-12.65-64.53,8.09-18.99,7.52-19.15,4.76-27.79-2.76-8.64-4.37-20.37-18.99-26.34-14.62-5.98-20.98-8.17-28.69-13.97-7.71-5.8-36.5-19.96-68.35-9.73-31.85,10.23-92.21,28.03-100.33,31.71-8.11,3.68-5.89,2.89-7.96-.3-2.07-3.19-.93-7.99-7.89-4-6.96,3.99-29.67,15.3-31.98,16.38-2.3,1.08-6.36,1.21-2.9,7.26,3.46,6.04,7.9,10.8,1.3,14.58-6.59,3.78-16.02,4.31-12.53,10.83,3.49,6.52,10.8,26.9,11.95,30.62,1.16,3.72,4.96,7.38-4.02,10.82-8.98,3.44-12.17,3.81-15.13,5.02-2.96,1.21-4.79,.56-3.74,4.09,1.05,3.53-4.97,4.07-19.68,9.82-14.71,5.75-27.72,9.8-35.41,14.21-7.69,4.41-17.66,9.25-39.09-11.08-7.89-7.04-7.37-4.07-9.76,2.63-2.38,6.7-9.71,15.65-3.29,25.3,6.43,9.66,10.61,14.37,17.57,17.21,6.96,2.83,15.71,10.86,20.67,18.99,4.96,8.13,10.39,16.58,14.8,19.09,4.41,2.51,9.67,3.94,3.59,12.47-6.08,8.53-22.56,49.1-55.47,55.81-13.46,2.38-5.04,.52-3.9-5.77,1.14-6.29-2.29-20.03-5.49-27.69-3.2-7.65-6.93-26.57-11.44-37.03-4.51-10.46-23.73-72.97-33.94-92.32-10.2-19.35-20.94-36.02-33.5-52.25-12.56-16.22-17.07-22.53-25.86-35.28-8.79-12.75-52.61-72.13-65.3-94.8s-41.15-67.14-53.45-82.91c-12.3-15.78-15.88-19.95-33.45-33.01-17.56-13.06-24.11-16.72-31.71-20.66-7.6-3.95-6.16,1.16-22.01,4.02-15.85,2.86-41.65,11.12-65.83-6.74-24.17-17.87-28.65-27.75-35.4-41.08-6.75-13.33-30.9-38.91-37.8-46.82-6.9-7.9-5.11-6.85-5.4-9.95-.29-3.09-4.96-8.13-13.87-14.88-8.91-6.75-24.24-23.16-48.66-26.96-24.41-3.8-32.49-5.99-41.45-3.52-8.96,2.47-32.22,4.83-54.15,18.29-21.93,13.46-395.3,241.38-405.05,248.16-9.75,6.78-21.08,10.3-23.93,20.83-2.86,10.53-8.59,19.15-18.27,33.3-9.68,14.15-41.34,57.19-48.71,77.43-7.38,20.24-24.36,57.84-28.37,66.36-4.01,8.52-4.62,26.07-20.65,40-16.03,13.93-17.71,18.75-23.18,31.97-5.47,13.22-14.13,31.22-17.83,51.13-3.71,19.91-11.44,35.91-3.47,54.46,7.97,18.56,14.01,31.69,12.84,35.33-1.18,3.64,2.19,14.16-24.92,23.77-27.11,9.61-117.7,41.37-123.12,43.29-5.42,1.92-10.43,.94-8.47,11.08,1.96,10.14,11.81,55.78,12.11,60.95,.29,5.17,7.35,11.79-7.29,13.66-14.64,1.87-65.23,9.81-68.42,10.46-3.19,.64-6.77-1.46-6.05,9.1,.72,10.56-.27,41.95-5.74,55.17-5.47,13.22-4.39,9.93-21.59,31.64-17.2,21.72-24.37,27.31-24.73,49.45-.35,22.14-1.51,40.3,2.88,52.61,4.39,12.31,10.16,32.72,11.58,45.54,1.42,12.82,11.94,58.08,20.45,71.88,8.5,13.8,6.47,16.45,23.37,11.81,20.44-5.19,97.06-19.46,101.84-20.42,4.78-.96,20.22-2.99,32.77,4.93,12.55,7.93,16.21,5.53,39.53,2.25,23.32-3.28,33.53-4.09,38.76-5.31,5.23-1.22,6.89-2.47,12.05-4.83,5.17-2.37,7.17-3.52,8.52,4.01,1.35,7.53,4.37,24.18,10.57,33.96,6.2,9.79,20.33,33.41,28.76,37.77,8.43,4.36,31.13,18.62,35.89,21.23,4.76,2.61,6.35,4.36,13.37,2.12,7.02-2.24,40.47-15.78,46.94-17.42,6.47-1.64,14.51-8.31,17.72-12.53,3.22-4.22,15.61-19.32,23.75-15.98,8.14,3.34,12.83,4.8,14.49,5.63,1.66,.83,6.09-.23,3.68,5.9-2.42,6.13-5.53,14.14-6.17,17.17-.63,3.03-2.93,3.16,1.74,10.27,4.67,7.11,15.18,23.91,16.59,26.36,1.41,2.45,3.04,4.78,6.16,2.99,3.12-1.79,28.56-16.37,31.56-18.39,3-2.01,4.53-3.48,5.57-9.42,1.05-5.94,11.93-51.6,12.47-56.36,.54-4.75,1.17-7.79,4.65-7.41,3.48,.38,78.1,1.78,87.83,2.73,9.73,.94,27.76,1.88,48.49-2.3,20.73-4.17,305.94-62.09,311.33-62.52,5.39-.42,7.78-2.98,8.07,2.19,1.32,9.03,.97,13.08,7.16,10.42,6.19-2.66,60.51-32.01,74.61-33.28,14.1-1.26,23.67-6.8,28.78-11.34,5.11-4.53,8.8-12.56,8.8-12.56Z"/><path class="e" d="M433.47,1255.22c-.42,1.88-.82,3.59-1.19,5.17,.37-1.59,.73-3.31,1.19-5.17Zm184.96-340.57c-29.53,24.97-59.07,49.85-88.62,74.72l-39.42,33.22c-1.25,1.05-3.05,1.23-4.47,.47-114.28-60.64-180.28-95.87-196.2-104.72-10.05-5.56-19.82-9.91-29.17-12.85-15.35-4.83-27.3-5.31-35.76-4.39-2.84,.29-5.05-2.42-4.19-5.16l2.04-6.48s2.16-12.56,10.01-10.7c7.85,1.86,15.17,5.38,18.65,5.87,3.48,.48,11.07-.76,15.98-12.45,4.88-11.75,.97-16.56,17.4-13.23,16.42,3.37,42.7,9.85,50.21,12.78,7.5,2.97,13.95,2.6,12.05,9.34-1.94,6.73-4.8,9.85-.18,11,4.66,1.16,33.16,8.9,37.33,9.12,4.13,.21,5,1.05,6.77-4.99,1.82-6.07,5-16.73,6.27-19.92,1.32-3.21,1.5-7.26,8.62-5.33,7.13,1.94,11.98,2.76,14.36,3.51,2.35,.74,4.72,3.19,6.54-3.58,1.82-6.77,3.43-10.76,4.03-12.8,.63-1.99,.76-4.35,4.76-3.31,3.99,1.08,74.45,21.02,78.01,22.05,.93,.25,42.22,12.63,103.55,31,2.99,.9,3.83,4.79,1.43,6.83Zm317.8,288.92c-22.82-7.05-43.69-13.48-61.42-18.93-30.43-9.4-51.82-16-58.82-18.2-18.37-5.78-29.04-2.63-37.52,4.88-.96,.83-2.7,4.29-4.35,3.42l-132.03-69.04c-2.14-1.11-2.81-3.86-1.44-5.83,15.43-21.54,34.88-38.1,59.09-50.32,39.88-20.23,81.9-23.79,124.87-10.66l.95,.3c69.26,21.79,116.66,88.92,115.85,160.68,0,2.66-2.64,4.5-5.18,3.7Zm422.64,105.98c27.32-39.6,8.7-69.75,8.7-69.75,15.28-38.98-10.28-63.71-10.28-63.71,10.05-16.11,9.67-33.93,5.82-60.04-3.84-26.12-15.06-10.33-15.06-10.33,7.64-21.1-5.34-23.18-5.34-23.18,7.02-22.31-15.34-21.52-15.34-21.52,19-44.41-10.64-48.53-10.64-48.53-.27-11.93-13.96-9.81-13.96-9.81,6.77-25.97-17.59-22.01-17.59-22.01-13.98-22.66-18.01-.82-18.01-.82-8.86-.6-8.56,13.17-8.56,13.17-5.05-2.42-10.02-.92-11.45,1.95-1.12,2.31,.16,5.03,.49,5.66,.12,.87,.46,3.25-.76,5.88-1.1,2.54-3.01,3.86-3.76,4.32-2.13,.95-7.19,3.55-10.43,9.26-5.99,10.57-.08,21.91,.37,22.71l-17.18,3.64c-15.41-25.74-39.91,4.92-39.91,4.92-11.37-.95-21.61,17.58-21.61,17.58,0,0-39.65-11.9-99.22-29.77l18.8,69.14c12.5,46.1,25,92.2,37.56,138.27,.88,3.16,2.26,6.43,3.66,9.89,.37,.9,.78,1.82,1.1,2.75,52.84,16.36,97.01,30.13,131.33,40.92,71.99,22.65,90.93,29.07,96.86,31.67,3.78,1.66,8.36,.86,10.88-2.41,5.33-6.92,3.53-19.86,3.53-19.86Zm-927.99-44c.24-.76,.46-1.6,.71-2.53,.21-.81,.45-1.7,.69-2.62,.37-1.59,.77-3.3,1.19-5.17,.41-1.71,.8-3.51,1.15-5.45,.28-1.44,.54-2.98,.82-4.55,.54-2.84,1.01-5.84,1.4-9.04,.22-1.55,.41-3.1,.61-4.7,.01-.04,.03-.08,0-.13,.17-1.65,.35-3.34,.49-5.04,.14-1.7,.25-3.42,.36-5.17,.12-1.76,.19-3.52,.23-5.3,.02-.21,.05-.42,.03-.65,.05-2.65,.07-5.35,0-8.08-.02-1.45-.08-2.95-.18-4.43-.1-1.48-.21-2.95-.31-4.42-.14-1.49-.29-2.97-.43-4.46-.15-1.32-.32-2.59-.53-3.88-.2-1.46-.4-2.88-.69-4.33-.17-.84-.31-1.67-.52-2.52-.48-2.38-1.03-4.78-1.73-7.14-.24-.91-.49-1.77-.78-2.65,.01-.04,0-.13-.07-.2-.24-.91-.53-1.78-.86-2.67-.75-2.2-1.59-4.39-2.52-6.56-.69-1.57-1.41-3.15-2.19-4.71-.72-1.45-1.51-2.84-2.3-4.22-.16-.31-.38-.6-.56-.87-.61-.98-1.22-1.96-1.84-2.9-.76-1.2-1.58-2.33-2.42-3.43-.49-.68-.98-1.31-1.52-1.96-.5-.64-1-1.28-1.56-1.85-.47-.59-.96-1.13-1.48-1.69-.03-.05-.07-.06-.09-.12-.68-.74-1.41-1.49-2.15-2.21-.93-.95-1.86-1.85-2.85-2.73-.13-.13-.24-.21-.37-.34-.86-.75-1.75-1.51-2.66-2.24-1.74-1.42-3.58-2.79-5.5-4.05-.65-.42-1.23-.82-1.88-1.25-.88-.54-1.76-1.08-2.64-1.62-.52-.29-1.08-.6-1.6-.9-.11-.08-.19-.1-.31-.14-.77-.46-1.57-.84-2.36-1.26-1.01-.54-2.1-1.1-3.18-1.57-1.29-.62-2.6-1.17-3.96-1.73-1.2-.51-2.4-.97-3.62-1.4-1.53-.57-3.1-1.11-4.73-1.62-2.94-.93-6.04-1.77-9.42-2.57-1.73-.46-3.45-.82-5.17-1.19-1.63-.38-3.23-.71-4.84-1-1.61-.29-3.19-.57-4.77-.8-1.57-.28-3.17-.47-4.73-.66-.41-.09-.83-.13-1.27-.14-1.6-.2-3.17-.34-4.75-.45-1.7-.14-3.38-.23-5.07-.28-1.81-.09-3.55-.11-5.31-.05-.75,.03-1.49,.01-2.24,.04-.74-.01-1.49,.01-2.21,.09-1.05,.02-2.08,.09-3.12,.2-2.45,.15-4.82,.45-7.2,.79-1.6,.24-3.18,.53-4.72,.83-1.95,.35-3.84,.8-5.75,1.34-1.9,.49-3.78,1.04-5.63,1.64-.97,.31-1.95,.65-2.9,1.01-.38,.1-.73,.25-1.14,.43,1.43,.32,2.75,.69,4.19,1.14,17.06,5.37,37.69,21.17,38.86,65.8,.46,16.44,.19,28.99-.03,38.14-.24,9.67-.43,17.34,.62,20.12,.29,.75,2.39,1.71,6.21,2.91,2.94,.93,70.95,27.71,79.4,31.04,.28-.87,3.05-9.38,3.71-11.89Zm193.84,19.86c.14-1.7,.29-3.41,.4-5.16,.18-2.65,.32-5.45,.37-8.27,.02-1.44,.03-2.87,0-4.32,0-1.23-.02-2.45-.08-3.65-.02-1.19-.08-2.38-.14-3.58,.01-.04-.01-.09-.01-.09-.06-1.07-.16-2.15-.25-3.23-.06-1.07-.19-2.16-.29-3.24-.15-1.05-.29-2.14-.44-3.2-.15-1.05-.34-2.12-.53-3.18-.12-.6-.22-1.25-.36-1.91-.16-.75-.32-1.5-.49-2.21-.18-.67-.35-1.38-.54-2.05-.16-.62-.35-1.25-.52-1.82-.91-3.08-2.03-6.06-3.43-8.81-.29-.61-.59-1.19-.9-1.72-.39-.69-.76-1.33-1.17-1.98-.39-.69-.81-1.3-1.28-1.89-.42-.61-.85-1.19-1.29-1.72-.01-.09-.08-.16-.15-.22-.22-.29-.47-.59-.74-.84-.03-.05-.05-.1-.09-.12-.35-.42-.67-.78-1.05-1.12-1.44-1.54-3.03-2.88-4.8-4.05-.28-.22-.57-.4-.87-.58-.51-.33-1.03-.63-1.58-.94-.37-.2-.74-.41-1.13-.57-1.4-.7-2.87-1.3-4.42-1.78-.4-.13-.83-.26-1.17-.32-.53-.12-1.05-.29-1.55-.36-.32-.1-.69-.17-1.02-.23-.57-.14-1.15-.23-1.73-.33-.58-.1-1.12-.18-1.71-.27-1.12-.18-2.22-.31-3.3-.34-.73-.05-1.45-.11-2.15-.11-.04-.01-.08-.03-.13,0-.7,0-1.45,.02-2.12,.08-.75,.03-1.46,.06-2.15,.15-.72,.08-1.41,.17-2.1,.3-.7,.13-1.39,.26-2.06,.44-.7,.13-1.37,.31-2.01,.55-1.34,.37-2.67,.86-3.96,1.47-.65,.27-1.28,.6-1.91,.93-.67,.31-1.31,.68-1.91,1.06-1.11,.61-2.11,1.3-3.14,2.07-.17,.12-.39,.27-.57,.43,8.14,7.46,14.24,22.79,11.02,53.32,.02,.22,0,.4-.02,.61l47.62,25.85c.17-1.52,1.67-11.39,1.84-13.04Zm85.45-13.49c2.32-11.75-5.25-27.26-17.78-2.73-9.41,20.64-13.05,34.33-13.05,34.33l22.83,2.95s7.71-32.94,8-34.56Zm-36.22,32.43h-.04m615.67,171.71c-21.98-6.11-445.28-132.81-509.28-151.85-4.01-1.19-8.51-.09-11.08,3.21-3.8,4.88-9.89,7.53-17.48,7.27-6.83-.23-41.7-4.12-45.89-4.69-1.15-.1-2.83-.32-4.74-.92-2.07-.65-3.98-1.65-5.5-2.78-1.01-.61-4.99-2.33-9.59-4.23-1.55-.64-3.32-.43-4.72,.5-3.85,2.58-8.82,2.29-14.03,1.99-1.23-.12-3.6-.22-6.49-.34-19.18-.97-23.62-1.31-26.27-1.93-1.11-.09-2.62-.3-4.36-.85-1.27-.4-4.64-2.07-54.72-29.27-5-2.71-8.62-4.68-9.74-5.29-7.19-2.7-7.52-6.78-7.19-12.71,.01-.87,.07-1.9,.14-3.1l.02-.48c.47-4.4,.74-8.59,.8-12.55,.02-.61,.03-1.21,.03-2.18,.03-.78-.01-1.49-.05-2.33-.13-5.15-.72-9.66-1.79-13.63-.12-.6-.35-1.11-.54-1.74-.2-.63-.43-1.27-.69-1.83-9.15,13.38-14.53,30.21-17.52,39.58-.85,2.7-1.54,4.89-2.09,6.38l-1.25,3.41c-4.02,10.97-7.84,21.31-25.04,21.66-7.55,.11-60.28-3.67-70.34-5.74-1.12-.18-2.18-.43-3.18-.74-.68-.21-2.14-.85-19-7.94-22.92-9.66-65.59-27.63-71.99-29.64-1.17-.32-2.24-.66-3.27-.99-19.28-6.07-19.1-14.44-18.48-39.33,.2-8.98,.48-21.26,.04-37.35-.15-6.34-.77-12.13-1.82-17.26-.31-1.67-.69-3.23-1.06-4.7-.39-1.52-.89-2.99-1.35-4.31-.68-2.01-1.44-3.9-2.3-5.62-4.5-9.32-11.47-15.49-20.69-18.39-13.9-4.37-23.22,4.36-27.27,8.2l-1.1,1.01c-18.88,18.49-33.85,47.16-42.14,80.47-.16,.78-.69,2.89-1.04,4.13l-.17,.69c-4.38,17.41-14.87,24.64-31.17,21.44l-.11-.02c-5.6-1.08-8.4,6.53-3.4,9.28,11.05,6.08,23.42,13.87,34.19,23.38,.2,.18,.39,.37,.56,.57,6.64,7.8,14.34,16.65,37.23,30.54,11.96,7.26,64.93,28.07,249.5,86.14,212.01,66.7,482.57,146.17,513.06,153.58,51.79,12.62,83.1,7.26,115.51-19.64,2.3-1.9,4.3-3.67,6.06-5.22,13.98-12.21,18.65-15.24,44.04-10.96,20.84,3.5,22.49,2.27,31.79-4.64,1.51-1.19,3.21-2.44,5.17-3.79,3.39-2.43,5.87-5.06,8.24-7.59,8.75-9.35,16.42-15.24,42.35-12.37,6.87,.72,12.71-.61,17.71-4.14,3.68-2.59,2.61-8.23-1.78-9.18-1.54-.33-3.12-.72-4.73-1.16Zm26.3-28.17l-2.17,6.48c-.84,1-5.38,3.07-17.96-.41-23.51-6.52-486.92-144.7-502.62-149.38-7.57-1.76-36.35-12.68-41.84,5.71-.23,.8-.98,1.37-1.81,1.3-9.05-.76-31.66-3.23-38.43-4.04,15.66-62.41,6.34-65.87,1.85-67.54l-.44-.14c-16.94-5.33-38.95,44.9-43.35,58.9-.37,1.02-.63,1.99-.89,2.82-6.9-.42-21.26-1.45-28.42-2.17,8.38-55.96-4.36-92.26-35.85-102.17-.6-.19-1.23-.39-1.84-.54-23.97-6.32-45.13,1.36-61.22,22.08-13.26,17.02-20.14,38.59-23.82,50.14-.71,2.27-1.29,4.1-1.77,5.34l-1.26,3.45c-1,2.75-1.95,5.37-2.58,6.66-.49,.02-1.05,.02-1.37,.05-6.45,.07-56.8-3.62-65.36-5.31-.03-.75,.11-1.89,.34-2.73,.93-2.68,24.14-72.28-2.43-124.78-11.92-23.5-31.91-39.84-59.46-48.51-3.42-1.08-7.05-2.04-10.71-2.89-47.05-11.83-86.72-3.12-117.78,26.04l-.69,.66c-22.83,21.74-39.99,53.79-49.67,92.74-.17,.69-.3,1.22-.4,1.54-.27,1.01-.55,2.01-.77,2.99-.47,1.77-1.06,4.21-1.59,4.92-.16-.05-1.05,.02-2.91-.35-3.41-.68-9.99-1.87-17.48-3.18-13.4-2.42-33.64-6-36.74-6.97-.52-.16-2.04-.6-2.04-.6-.06-.63-.11-1.74,.04-3.61l.02-.48c.09-.85,.21-1.77,.35-2.77l.12-.93c.39-2.37,.9-5.22,1.6-8.54,1.56-7.33,4.3-21.02,7.51-36.92,6.89-34.54,16.33-81.91,19.32-91.41l48.48-154.12c5.57-1.87,17.19-3.68,35.72,2.15,8.27,2.6,17.02,6.45,26.06,11.48,16.06,8.94,81.76,44.03,195.23,104.2l9.29,4.93,8.72-1.19,1.41-1.3c1.47-1.33,2.83-2.47,4.21-3.66l38.76-32.64c32.03-26.94,64.03-53.92,95.98-80.92l4.77-4.05c9.06-7.81,17.22-15.16,24.9-22.49,5.98-5.68,10.93-11.42,14.82-17.1,6.6-9.85,5.15-18.31-4.39-25.9-1.22-.99-1.97-1.67-2.4-2.11,.95-.93,2.58-1.94,4.04-2.27,4.74-1.17,8.85-3.55,11.87-6.89,6.83-7.55,4.09-14.4,2.62-18.05-.34-.85-.69-1.7-.84-2.32l.33,.06c3.58,.99,7.19,2,10.73,3.11,2.15,.68,4.28,1.39,6.39,2.19,.74,.28,1.49,.55,2.2,.78,10.5,3.3,19.12,.33,25.65-8.75,7.29-10.12,14.86-20.28,22.19-30.12,10.38-13.95,21.13-28.4,31.23-43.01,13.41-19.29,26.52-39.29,39.2-58.63,7.12-10.83,14.24-21.65,21.44-32.45,6.07-9.15,12.21-21.59,5.76-36.77-.59-1.32-.69-3.36-.35-5.14,.35-1.68,.67-2.54,.89-2.95,.17,.01,.33,.06,.57,.14,.24,.08,1.05,.42,1.05,.42l.64,.2c.4,.13,.85,.22,1.3,.32h.04c1.27,.54,2.28,.95,3.28,1.26,9.66,3.04,17.03-.94,21.91-11.72,9.17-20.41,18.77-41.07,28.03-61.05,11.03-23.8,22.39-48.41,33.25-72.78,21.45-48.18,42-96.42,60.99-141.36l4.63-10.95c26.83-63.35,54.53-128.88,75.06-196.09,1.89-6.14,4.36-12.48,7.53-19.48,3.98-8.89,7.68-20.79,1.41-34.21-.82-1.7-.92-4.57-.46-5.61,7.02-15.93,14.49-31.62,22.2-46.68,.73-.51,2.59-1.15,3.65-1.17,11.89,.11,19.38-4.52,24.29-10.67,.69,8.08,5.05,15.05,13.26,21.34,2.46,1.91,6.58,5.04,7.03,6.14,.08,.99-1.59,4.92-3.23,8.73l-.32,.73c-1.38,3.28-1.79,6.65-2.12,9.65-.08,.81-.18,1.56-.29,2.31-.39,2.76-.7,5.55-1.01,8.34-.57,5.41-1.17,10.51-2.22,15.51-1.3,5.8-4.2,9.73-9.19,12.4-5.1,2.72-8.74,8.48-10.12,12.99-28.19,92.94-51.52,184.88-69.26,273.21-11.14,55.27-21.81,111.56-32.16,165.98-6.73,35.42-13.46,70.84-20.36,106.25-2.33,12.42,4.93,16.97,10.58,19.28,5.1,2.13,7.12,3.47,7.87,4.14-.54,.88-2.02,2.82-6.25,6.38-8.71,7.4-13.38,17.11-13.94,28.91-1.32,27.11-2.38,51.6-2.27,76.67,.17,25.01,.71,50.39,1.26,74.9,.39,18.34,.78,36.69,1.04,55.04,.12,9.34,4.34,15.22,12.93,17.92l.97,.26c3.4,.98,6.76,1.99,10.26,3.1,2.62,.83,5.29,1.66,8.02,2.57-2.13,2.61-3.91,4.8-5.73,6.98-6.77,7.92-6.19,16.49,1.64,23.54,1.83,1.67,2.68,2.72,3.11,3.3-.56,.52-1.62,1.41-3.88,2.76-15.23,9.1-17.95,15.94-13.25,33.24,3.16,11.61,6.31,23.13,9.44,34.74l21.12,77.87c12.28,45.29,24.59,90.59,36.92,135.85,.52,1.96,1.23,4.01,2.19,6.5,.69,1.83,1.43,3.64,2.2,5.5,.91,2.25,1.82,4.5,2.63,6.77l1.04,2.95,15.4,4.8c45.31,14.04,88.77,27.58,124.95,38.96,73.68,23.18,90.49,29.04,93.6,30.41l.27,.26,3.2,1.22c1.91,.73,4.06,1.54,4.99,2.05,0,.83-.23,2.81-1.47,7.45-6.66,24.65-22.22,71.18-28.58,90.03Zm-397.15-828.85l57.26,18.14,26.06-154.92-11.76-3.87-71.56,140.65Zm-119.2,234.3l6.62,2.43c25.09,9.29,45.42,16.34,64.02,22.2,21.15,6.65,40.44,11.89,59.06,16.04l4.66,1.03,2.25-4.23c.47-.94,.75-1.42,.93-1.72,.36-.59,.94-1.58,1.09-3.06l.05-.42c1.59-49.23,9.29-98.71,16.8-146.6l1.27-8.34c.79-5.3-3.42-12.61-8.35-14.56-8.08-3.07-16.26-5.81-24.14-8.42-6.64-2.22-13.51-4.56-20.14-6.95-.5-.2-1.02-.37-1.5-.52-15.51-4.88-21.54,7.08-23.52,11-20.45,40.41-43.01,83.39-69.68,123.85-1.56,2.31-2.66,4.71-4.01,7.48-.65,1.37-1.34,2.86-2.22,4.55l-3.19,6.25Zm156.42,373.83l.89-7.54c.47-3.87,.77-7.45,.96-10.97,4.94-82.65-48.56-160.66-127.25-185.41l-1.05-.29c-47.23-14.46-93.44-10.52-137.3,11.69-28.64,14.5-51.08,34.31-68.58,60.62-1.85,2.69-3.75,5.68-5.75,9.11l-3.35,5.63,5.81,3.05c3.11,1.63,6.15,3.24,9.21,4.91l151.84,79.26s2.95-13.35,5.77-15.78c1.69-1.48,7.38-4.28,23.84,.9,6.56,2.06,25.96,8.04,53.61,16.56l74.84,23.11c3.07,.92,6.18,1.9,9.32,2.89l7.2,2.26Z"/><g><path class="f" d="M1302.15,1138.28c-187.69-23.19-321.52-194.75-298.33-382.44,23.19-187.69,194.75-321.51,382.44-298.32,187.69,23.19,321.51,194.75,298.32,382.44-23.19,187.69-194.75,321.51-382.44,298.32Zm83.07-672.3c-183.02-22.61-350.32,107.89-372.93,290.91-22.61,183.02,107.89,350.32,290.91,372.93,183.02,22.61,350.32-107.89,372.93-290.91,22.61-183.02-107.89-350.32-290.91-372.93Z"/><path class="f" d="M1277.88,1334.7c-295.99-36.57-507.05-307.13-470.47-603.13,36.57-295.99,307.13-507.04,603.13-470.47,295.99,36.57,507.04,307.13,470.47,603.12-36.57,295.99-307.13,507.05-603.12,470.47Zm131.61-1065.13c-291.33-36-557.62,171.73-593.62,463.05-36,291.33,171.73,557.62,463.06,593.62,291.32,36,557.62-171.73,593.61-463.06,36-291.32-171.73-557.62-463.05-593.61Z"/><path class="f" d="M1576.99,744.9c1.8-.76,3.75,.71,3.51,2.65l-3.08,24.89c-2.13,17.27-12.73,31.45-27.14,38.87-.06,.04-.16,.08-.22,.13l-192.14,82.22-15.54,125.79c-1.62,13.15-12.68,23.71-25.92,23.35-15.19-.41-26.38-13.76-24.57-28.47l15.68-126.89-166.22-127.23c-.09-.06-.14-.12-.23-.23-12.12-10.7-18.95-26.98-16.82-44.25l3.08-24.89c.24-1.94,2.49-2.89,4.05-1.71l183.33,140.16,19.25-155.79s-47-35.41-47.6-35.94c-13.46-10.61-21.2-27.82-18.95-46.05l3.05-24.69c.24-1.94,2.49-2.89,4.05-1.71l90.02,67.9,103.84-43.95c1.8-.76,3.75,.71,3.51,2.65l-3.05,24.69c-2.25,18.23-13.95,33.04-29.59,40.05-.71,.37-54.92,23.27-54.92,23.27l-19.25,155.79,211.89-90.6Z"/><path class="f" d="M931.62,770.34l-30.38,23.7-23.66-30.38,30.34-23.66,23.7,30.34Zm-14.23-107.02l-30.34,23.66,23.66,30.38,30.38-23.7-23.7-30.34Zm33.6,43.08l-30.33,23.66,23.66,30.38,30.34-23.71-23.66-30.33Zm-76.68-9.47l-30.33,23.66,23.66,30.38,30.34-23.71-23.66-30.33Z"/><g><path class="f" d="M1028.04,1148.1l-5.98,6.08-35.16-34.6,4.67-4.76,38.85,.39c4.71,.05,8.33-.36,10.84-1.23,2.51-.87,4.62-2.17,6.31-3.9,2.52-2.56,3.58-5.43,3.19-8.62-.39-3.19-2.27-6.44-5.62-9.74-5.41-5.32-11.32-7.65-17.74-7l-.7-8.81c4.21-.44,8.5,.2,12.88,1.94,4.38,1.75,8.48,4.5,12.31,8.26,5.12,5.05,7.99,10.29,8.61,15.72,.62,5.42-1.13,10.23-5.26,14.43-2.57,2.61-5.56,4.52-8.98,5.76-3.41,1.23-8.14,1.8-14.2,1.7l-29.13-.33,25.08,24.7Z"/><path class="f" d="M1088.89,1184.59l-10.43-7.83-10.13,13.48-7.61-5.71,10.13-13.48-30.5-22.92,4.13-5.49,55.05-14.81,8.47,6.36-52.93,14.45,21.08,15.85,8.96-11.92,7.37,5.54-8.96,11.92,10.43,7.83-5.06,6.74Z"/><path class="f" d="M1181.21,1244.48c-3.15-3.96-5.05-8.82-5.71-14.61-.66-5.78,.14-12.13,2.38-19.02,2.25-6.9,5.35-12.49,9.29-16.78,3.95-4.29,8.35-7.09,13.23-8.43,4.87-1.34,9.89-1.16,15.04,.52,5.1,1.66,9.22,4.47,12.37,8.42,3.14,3.95,5.05,8.82,5.71,14.6,.65,5.79-.14,12.13-2.39,19.03-2.25,6.9-5.34,12.49-9.29,16.78-3.94,4.28-8.34,7.09-13.22,8.43-4.87,1.33-9.85,1.17-14.95-.5-5.16-1.69-9.31-4.5-12.46-8.45Zm29.8-2.19c4.54-3.27,8.14-8.97,10.79-17.11,2.66-8.15,3.12-14.87,1.38-20.19-1.74-5.31-5.22-8.82-10.44-10.52-5.28-1.73-10.19-.96-14.74,2.31-4.53,3.27-8.13,8.97-10.79,17.11-2.66,8.15-3.11,14.87-1.38,20.19,1.74,5.31,5.25,8.83,10.54,10.55,5.23,1.7,10.1,.92,14.64-2.34Z"/><path class="f" d="M1296.18,1205.45l-1.17,6.56-38.24,56.12-10.24-1.83,37.34-54.39-30.89-5.53-2.16,12.07-9.27-1.66,3.67-20.47,50.97,9.13Z"/><path class="f" d="M1431.87,1260.54l1.1,8.46-48.91,6.38-.87-6.61,24.23-30.35c2.95-3.68,4.85-6.79,5.71-9.31,.86-2.51,1.13-4.97,.82-7.38-.47-3.57-2.07-6.17-4.82-7.82-2.76-1.66-6.47-2.18-11.13-1.57-7.52,.98-13.01,4.2-16.44,9.66l-7.36-4.87c2.23-3.59,5.38-6.57,9.46-8.95,4.07-2.38,8.77-3.91,14.09-4.6,7.13-.93,13.02,.03,17.69,2.88,4.66,2.86,7.36,7.2,8.12,13.04,.47,3.63,.15,7.17-.99,10.61-1.13,3.44-3.6,7.53-7.4,12.24l-18.19,22.75,34.91-4.56Z"/><path class="f" d="M1458.77,1259.64c-4.8-1.57-9.07-4.58-12.8-9.05-3.74-4.46-6.56-10.2-8.48-17.2-1.91-6.99-2.41-13.37-1.48-19.11,.94-5.75,3.07-10.52,6.4-14.31,3.33-3.79,7.61-6.41,12.85-7.84,5.17-1.42,10.15-1.35,14.95,.22,4.81,1.57,9.08,4.58,12.8,9.05,3.74,4.46,6.56,10.2,8.48,17.19,1.92,7,2.41,13.38,1.48,19.12-.94,5.75-3.06,10.52-6.4,14.31-3.33,3.79-7.58,6.4-12.75,7.81-5.24,1.44-10.26,1.38-15.06-.19Zm23.68-18.24c1.99-5.23,1.86-11.96-.41-20.22-2.26-8.26-5.59-14.13-9.96-17.61-4.38-3.48-9.22-4.49-14.51-3.03-5.36,1.47-9.04,4.82-11.03,10.04-2,5.22-1.86,11.96,.4,20.22,2.27,8.26,5.59,14.13,9.97,17.6,4.38,3.48,9.25,4.48,14.61,3.01,5.29-1.45,8.93-4.79,10.93-10.01Z"/><path class="f" d="M1555.73,1219.54l3.36,7.84-45.34,19.44-2.63-6.13,15.06-35.8c1.84-4.35,2.83-7.84,2.97-10.5,.14-2.66-.26-5.1-1.21-7.32-1.42-3.31-3.68-5.37-6.78-6.22-3.1-.84-6.81-.34-11.14,1.52-6.97,2.99-11.37,7.57-13.2,13.77l-8.41-2.69c1.17-4.06,3.4-7.79,6.68-11.18,3.27-3.4,7.37-6.15,12.3-8.26,6.61-2.83,12.55-3.51,17.81-2.03,5.25,1.48,9.05,4.93,11.37,10.33,1.44,3.37,2.08,6.86,1.93,10.48-.15,3.62-1.42,8.22-3.79,13.8l-11.33,26.84,32.36-13.88Z"/><path class="f" d="M1608.39,1189.37l4.33,7.36-42.52,25.01-3.38-5.75,10.41-37.41c1.27-4.54,1.81-8.14,1.62-10.79-.19-2.65-.91-5.02-2.13-7.11-1.82-3.1-4.32-4.86-7.51-5.31-3.18-.44-6.8,.53-10.85,2.91-6.54,3.85-10.33,8.95-11.36,15.32l-8.68-1.6c.65-4.17,2.39-8.15,5.21-11.94,2.82-3.78,6.54-7.03,11.16-9.75,6.2-3.65,12-5.06,17.41-4.26,5.4,.8,9.59,3.74,12.58,8.81,1.85,3.16,2.93,6.54,3.24,10.15,.31,3.61-.37,8.34-2.02,14.16l-7.85,28.06,30.34-17.85Z"/></g><g><path class="f" d="M933.69,568.18l5.14-8.35,51.18,31.53,19.49-31.65,7.27,4.48-24.64,39.99-58.44-36.01Z"/><path class="f" d="M967.59,516.83l5.96-7.78,54.49,41.77-5.96,7.78-54.49-41.77Z"/><path class="f" d="M988.45,490.45l6.72-7.14,43.77,41.21,25.48-27.06,6.21,5.84-32.2,34.2-49.98-47.06Z"/><path class="f" d="M1032,446.98l7.41-6.42,44.97,51.87-7.41,6.43-44.97-51.87Z"/><path class="f" d="M1123.33,442.55l-30.16,20.52,3.4,18.44-8.35,5.68-12.9-74.25,8.03-5.46,64.4,39.22-8.52,5.79-15.9-9.94Zm-7.25-4.56l-31.16-19.49,6.67,36.14,24.49-16.66Z"/><path class="f" d="M1178.64,357.75l28.04,62.66-7.34,3.28-58.51-29.9,20.91,46.73-8.95,4-28.04-62.66,7.34-3.28,58.51,29.9-20.91-46.72,8.95-4.01Z"/><path class="f" d="M1293.83,400.86l-10.68-7.24c-4.86,6.93-11.81,11.26-20.86,13-4.5,.87-8.69,.9-12.57,.12-3.88-.79-7.08-2.31-9.62-4.59-2.53-2.28-4.13-5.12-4.78-8.52-.79-4.11-.22-7.99,1.7-11.66,1.93-3.66,5.49-7.73,10.69-12.19-3.52-2.38-6.12-4.65-7.8-6.79-1.68-2.15-2.77-4.5-3.26-7.07-.88-4.56,.07-8.54,2.85-11.93,2.78-3.4,6.92-5.63,12.45-6.69,5.13-.99,9.45-.52,12.95,1.4,3.5,1.92,5.67,5.07,6.5,9.43,.65,3.4,.13,6.67-1.56,9.79-1.7,3.13-4.83,6.66-9.4,10.6l19.84,13.36c1.23-4.03,1.82-8.37,1.79-13.03l7.88,.98c-.02,6.13-.99,11.64-2.91,16.54l10.79,7.31-4.02,7.16Zm-47.22-53.19c-1.41,1.83-1.88,3.97-1.41,6.41,.33,1.73,1.12,3.31,2.36,4.74,1.23,1.43,3.47,3.26,6.7,5.5,3.95-3.36,6.6-6.09,7.96-8.22,1.36-2.12,1.83-4.25,1.42-6.36-.43-2.25-1.56-3.89-3.39-4.94-1.83-1.04-4.16-1.29-6.99-.75-3.02,.58-5.23,1.79-6.64,3.63Zm30.02,41.61l-22.83-15.38c-4.14,3.46-6.9,6.46-8.31,9.03-1.4,2.56-1.84,5.23-1.31,7.99,.62,3.21,2.51,5.54,5.69,7,3.18,1.45,7.01,1.75,11.5,.88,6.68-1.29,11.76-4.46,15.25-9.52Z"/><path class="f" d="M1340.59,337.5l-.48,23.92,34.41,.69-.17,8.43-34.41-.69-.56,27.75-9.81-.2,1.38-68.63,48.44,.98-.17,8.53-38.63-.78Z"/><path class="f" d="M1437.87,399.49l-1.42,8.41-49.12-8.27,11.4-67.7,47.78,8.05-1.42,8.41-38.11-6.42-3.5,20.79,33.95,5.72-1.38,8.22-33.95-5.72-3.68,21.86,39.46,6.65Z"/><path class="f" d="M1490.97,425.54l-7.27-24.72c-1.78-.46-3.17-.87-4.16-1.2l-16.07-5.44-6.69,19.79-9.29-3.15,22.01-65.02,25.36,8.58c8.42,2.85,14.37,7.11,17.83,12.77,3.47,5.66,4.01,12.02,1.62,19.08-1.69,5.02-4.39,8.87-8.05,11.56-3.67,2.69-8.07,4.07-13.21,4.13l8.04,27.05-10.12-3.43Zm5.73-33.16c3.95-1.49,6.73-4.59,8.32-9.3,1.59-4.7,1.27-8.84-.99-12.39-2.25-3.55-6.31-6.33-12.2-8.32l-15.79-5.34-9.91,29.26,15.79,5.35c5.88,1.99,10.8,2.24,14.76,.75Z"/><path class="f" d="M1594.87,401.44l-33.14,60.12-7.04-3.88-11.37-64.71-24.71,44.83-8.59-4.73,33.13-60.12,7.05,3.88,11.36,64.71,24.71-44.83,8.6,4.73Z"/><path class="f" d="M1619.33,484.82l-28.34-22.97-16.68,8.58-7.85-6.36,67.38-33.76,7.54,6.11-18.99,72.97-7.99-6.48,4.94-18.09Zm2.27-8.26l9.67-35.46-32.68,16.81,23.01,18.64Z"/><path class="f" d="M1716.44,513.29l-51.9,44.93-5.27-6.08,11.75-64.65-38.7,33.51-6.42-7.42,51.9-44.93,5.27,6.08-11.75,64.65,38.7-33.51,6.42,7.42Z"/><path class="f" d="M1733,536.37l14.55,25.01c3.65,6.27,5.64,12.56,5.98,18.87,.34,6.31-.95,12.11-3.89,17.41-2.93,5.3-7.31,9.64-13.13,13.02-5.82,3.38-11.76,5.04-17.82,4.97-6.05-.07-11.73-1.81-17.05-5.23-5.31-3.41-9.79-8.26-13.44-14.53l-14.54-25.01,59.34-34.51Zm-37.72,54.72c2.79,4.8,6.18,8.49,10.16,11.05,3.98,2.56,8.23,3.85,12.75,3.87,4.51,.02,8.97-1.25,13.38-3.81,4.4-2.56,7.72-5.81,9.93-9.74,2.21-3.94,3.19-8.27,2.94-13-.25-4.73-1.78-9.5-4.58-14.3l-9.31-16.02-44.6,25.93,9.32,16.02Z"/><path class="f" d="M1718.18,647.5c1.04-6.25,3.57-11.75,7.59-16.51,4.01-4.77,9.14-8.23,15.37-10.4,6.24-2.17,12.41-2.65,18.51-1.42,6.11,1.23,11.52,3.97,16.21,8.21,4.7,4.24,8.19,9.64,10.48,16.18,2.26,6.48,2.87,12.85,1.83,19.1-1.04,6.25-3.56,11.73-7.55,16.45-4,4.72-9.15,8.17-15.45,10.37-6.3,2.2-12.47,2.69-18.54,1.49-6.07-1.21-11.45-3.94-16.15-8.18-4.7-4.25-8.19-9.61-10.45-16.09-2.28-6.55-2.9-12.94-1.86-19.19Zm17.82,28.01c3.48,3.04,7.51,5,12.06,5.86,4.56,.87,9.19,.48,13.88-1.15,4.69-1.64,8.55-4.21,11.59-7.73,3.04-3.51,4.97-7.55,5.8-12.1,.84-4.55,.43-9.2-1.23-13.96-1.66-4.75-4.24-8.68-7.75-11.78-3.5-3.11-7.54-5.09-12.09-5.96-4.57-.87-9.2-.48-13.88,1.15-4.7,1.63-8.56,4.21-11.59,7.72-3.04,3.52-4.96,7.58-5.78,12.19-.81,4.62-.39,9.3,1.27,14.05,1.66,4.75,4.23,8.65,7.72,11.7Z"/></g><circle class="f" cx="1134.89" cy="1193.23" r="8.62"/><circle class="f" cx="1340.67" cy="1248.61" r="8.62"/><path class="f" d="M1802.41,877.94l-30.38,23.7-23.66-30.38,30.34-23.66,23.7,30.34Zm-14.23-107.02l-30.34,23.66,23.66,30.38,30.38-23.7-23.7-30.34Zm33.6,43.08l-30.33,23.66,23.66,30.38,30.34-23.71-23.66-30.33Zm-76.68-9.47l-30.33,23.66,23.66,30.38,30.34-23.71-23.66-30.33Z"/><path class="f" d="M1619.13,1146.14l-2.64-3.35c66.34-52.36,116.17-121.92,144.11-201.17l4.02,1.42c-28.21,80.01-78.52,150.24-145.49,203.1Z"/><path class="f" d="M985.73,1067.88c-52.09-67.57-83.79-147.93-91.68-232.4l4.24-.4c7.81,83.67,39.21,163.27,90.81,230.2l-3.38,2.6Z"/></g></g></g></g></svg>